<svg width="92" height="35" viewBox="0 0 92 35" fill="none" xmlns="http://www.w3.org/2000/svg">
<rect x="6.10352e-05" width="35" height="35" rx="6" fill="#DC8431"/>
<g clip-path="url(#clip0_1_34)">
<path d="M6.49564 11.285V14.4441L9.27267 15.9792L10.7682 16.8063L15.4045 19.3685V29.9459L5.00006 24.2436V16.838L6.49564 17.6222V23.4436L13.909 27.5059V20.1654L10.7682 18.4287L9.27267 17.6032L5.00006 15.241V10.4611L17.4678 4.0254L17.5001 4.00952L17.5171 4L17.5324 4.0254L18.2411 5.22237L17.5001 5.60495L6.49564 11.285Z" fill="white"/>
<path d="M21.0912 27.5059L28.5045 23.4436V17.6826L30.0001 16.838V24.2436L19.5956 29.9459V19.3685L24.5361 16.638L26.0317 15.8109L28.5045 14.4441V11.285L17.5001 5.60495L16.7591 5.22237L17.4678 4.0254L17.4831 4L17.5001 4.00952L17.5324 4.0254L30.0001 10.4611V15.241L26.0317 17.4349L24.5361 18.262L21.0912 20.1654V27.5059Z" fill="white"/>
<path d="M17.6258 8.60535L17.223 8.86569L9.27264 13.4773V22.1323L13.9089 24.5977L15.4045 25.393V23.7881L13.9089 22.988L10.7682 21.3084V14.2552L17.6513 10.2659L24.5361 14.2552V21.3211L21.0911 23.1452L19.5956 23.9373V25.5502L21.0911 24.7533L26.0317 22.1212V13.4773L17.6258 8.60535Z" fill="white"/>
<path d="M19.5956 28.3505V29.9634L17.6513 31L15.4045 29.8062V28.2013L17.6309 29.3919L19.5956 28.3505Z" fill="#08060B"/>
<path d="M17.721 15.5252L13.8138 13.4424L15.0918 12.7899L17.7363 14.1821L20.2805 12.8756L21.4905 13.5805L17.721 15.5252Z" fill="#08060B"/>
<path d="M17.7295 18.2239L10.4437 14.2393L11.9749 13.4583L17.7465 16.6142L23.6779 13.517L25.1293 14.3615L17.7295 18.2239Z" fill="white"/>
</g>
<g clip-path="url(#clip1_1_34)">
<path d="M79.9365 18.7889C79.7928 18.6408 79.6132 18.6055 79.4982 18.7043L78.4277 19.678C78.3127 19.7839 78.3343 19.9603 78.478 20.1155L83.8235 25.8169L85.1743 24.3775L79.9365 18.796V18.7889Z" fill="white"/>
<path d="M86.5251 25.8098L85.1743 27.2493L90.4121 32.8307C90.5558 32.9789 90.7355 33.0142 90.8504 32.9154L91.921 31.9417C92.0359 31.8358 92.0144 31.6594 91.8707 31.5042L86.5251 25.8027V25.8098Z" fill="white"/>
<path d="M78.478 31.5112C78.3343 31.6593 78.3127 31.8428 78.4277 31.9486L79.4982 32.9224C79.6132 33.0282 79.7928 32.993 79.9365 32.8377L85.1743 27.2562L83.8235 25.8168L78.478 31.5182V31.5112Z" fill="white"/>
<path d="M91.8779 20.1154C92.0216 19.9672 92.0431 19.7837 91.9282 19.6779L90.8576 18.7041C90.7427 18.5983 90.563 18.6336 90.4193 18.7888L85.1815 24.3703L86.5323 25.8098L91.8779 20.1083V20.1154Z" fill="white"/>
<path d="M71.6396 1.14818C71.5534 1.06351 71.4025 1 71.2731 1H62.1411C62.0118 1 61.9255 1.08467 61.9255 1.21169V2.67938C61.9255 2.80639 62.0118 2.89107 62.1411 2.89107H71.3809C71.8336 2.89107 72.1282 3.18743 72.1282 3.62492V15.1125C72.1282 15.2606 72.2359 15.3665 72.3868 15.3665H73.8022C73.9531 15.3665 74.0609 15.2606 74.0609 15.1125V3.71665C74.0609 3.58964 73.9962 3.44146 73.91 3.36384L71.6396 1.14818Z" fill="white"/>
<path d="M61.7172 2.88403H60.2155C60.0862 2.88403 60 2.96871 60 3.09572V15.1478C60 15.2748 60.0862 15.3594 60.2155 15.3594H61.6741C61.825 15.3594 61.9327 15.2536 61.9327 15.1054V3.09572C61.9327 2.96871 61.8465 2.88403 61.7172 2.88403Z" fill="white"/>
<path d="M91.2025 9.38988H89.7008C89.5715 9.38988 89.4853 9.47456 89.4853 9.60157V12.7416C89.4853 13.1791 89.1835 13.4754 88.738 13.4754H81.6106C81.1579 13.4754 80.8634 13.1791 80.8634 12.7416V10.1237C80.8634 9.68624 81.1651 9.38988 81.6106 9.38988H89.047C89.1763 9.38988 89.2625 9.30521 89.2625 9.17819V7.67522C89.2625 7.5482 89.1763 7.46353 89.047 7.46353H81.6106C81.1579 7.46353 80.8634 7.16717 80.8634 6.72968V3.61789C80.8634 3.1804 81.1651 2.88404 81.6106 2.88404H88.6375C89.0901 2.88404 89.3847 3.1804 89.3847 3.61789V7.07544C89.3847 7.20245 89.4709 7.28712 89.6002 7.28712H91.1019C91.2312 7.28712 91.3174 7.20245 91.3174 7.07544V3.78723C91.3174 3.61789 91.2312 3.43442 91.1234 3.32858L88.9392 1.1976C88.8315 1.09175 88.6375 1.00708 88.465 1.00708H79.1462C79.0168 1.00708 78.9306 1.09175 78.9306 1.21877V15.1478C78.9306 15.2748 79.0168 15.3595 79.1462 15.3595H88.5656C88.738 15.3595 88.932 15.2748 89.0398 15.1689L91.224 13.038C91.3318 12.9321 91.418 12.7416 91.418 12.5793V9.60862C91.418 9.48161 91.3318 9.39694 91.2025 9.39694V9.38988Z" fill="white"/>
<path d="M54.2719 9.38986H52.7702C52.6409 9.38986 52.5547 9.47453 52.5547 9.60154V12.7416C52.5547 13.1791 52.2529 13.4754 51.8074 13.4754H44.68C44.2273 13.4754 43.9327 13.1791 43.9327 12.7416V10.1237C43.9327 9.68622 44.2345 9.38986 44.68 9.38986H52.1164C52.2457 9.38986 52.3319 9.30518 52.3319 9.17817V7.67519C52.3319 7.54818 52.2457 7.46351 52.1164 7.46351H44.68C44.2273 7.46351 43.9327 7.16714 43.9327 6.72966V3.61786C43.9327 3.18038 44.2345 2.88401 44.68 2.88401H51.7069C52.1595 2.88401 52.4541 3.18038 52.4541 3.61786V7.07541C52.4541 7.20243 52.5403 7.2871 52.6696 7.2871H54.1713C54.3006 7.2871 54.3868 7.20243 54.3868 7.07541V3.78721C54.3868 3.61786 54.3006 3.4344 54.1928 3.32856L52.0014 1.19052C51.8937 1.08467 51.6997 1 51.5272 1H42.2155C42.0862 1 42 1.08467 42 1.21169V15.1407C42 15.2677 42.0862 15.3524 42.2155 15.3524H51.635C51.8074 15.3524 52.0014 15.2677 52.1092 15.1619L54.2934 13.0309C54.4012 12.925 54.4874 12.7345 54.4874 12.5722V9.60154C54.4874 9.47453 54.4012 9.38986 54.2719 9.38986Z" fill="white"/>
<path d="M42.2587 20.193H43.6741C43.8178 20.193 43.9327 20.3059 43.9327 20.447V32.7531C43.9327 32.8942 43.8178 33.0071 43.6741 33.0071H42.2587C42.115 33.0071 42 32.8942 42 32.7531V20.447C42 20.3059 42.115 20.193 42.2587 20.193Z" fill="white"/>
<path d="M60.5731 20.193H61.9885C62.1322 20.193 62.2471 20.3059 62.2471 20.447V32.7531C62.2471 32.8942 62.1322 33.0071 61.9885 33.0071H60.5731C60.4294 33.0071 60.3144 32.8942 60.3144 32.7531V20.447C60.3144 20.3059 60.4294 20.193 60.5731 20.193Z" fill="white"/>
<path d="M44.1842 18.3513H51.0458C51.1895 18.3513 51.3045 18.4642 51.3045 18.6053V19.9813C51.3045 20.1224 51.1895 20.2353 51.0458 20.2353H44.1842C44.0405 20.2353 43.9255 20.1224 43.9255 19.9813V18.6053C43.9255 18.4642 44.0405 18.3513 44.1842 18.3513Z" fill="white"/>
<path d="M52.9642 20.193H51.556C51.4131 20.193 51.2973 20.3067 51.2973 20.447V32.746C51.2973 32.8863 51.4131 33 51.556 33H52.9642C53.1071 33 53.2229 32.8863 53.2229 32.746V20.447C53.2229 20.3067 53.1071 20.193 52.9642 20.193Z" fill="white"/>
<path d="M53.4887 18.3513H60.0701C60.2138 18.3513 60.3288 18.4642 60.3288 18.6053V19.9813C60.3288 20.1224 60.2138 20.2353 60.0701 20.2353H53.4887C53.345 20.2353 53.23 20.1224 53.23 19.9813V18.6053C53.23 18.4642 53.345 18.3513 53.4887 18.3513Z" fill="white"/>
<path d="M73.6784 25.6757H67.6215C67.4706 25.6757 67.3629 25.7815 67.3629 25.9297V27.3198C67.3629 27.4679 67.4706 27.5738 67.6215 27.5738H73.6784C73.8293 27.5738 73.9371 27.4679 73.9371 27.3198V25.9297C73.9371 25.7815 73.8293 25.6757 73.6784 25.6757Z" fill="white"/>
<path d="M73.8868 18.4642C73.8006 18.3795 73.6497 18.316 73.5203 18.316H67.0683C66.9389 18.316 66.8527 18.4007 66.8527 18.5277V19.9954C66.8527 20.1224 66.9389 20.2071 67.0683 20.2071H73.6281C74.0808 20.2071 74.3754 20.5035 74.3754 20.941V32.7601C74.3754 32.9083 74.4831 33.0142 74.634 33.0142H76.0494C76.2003 33.0142 76.3081 32.9083 76.3081 32.7601V21.0468C76.3081 20.9198 76.2434 20.7716 76.1572 20.694L73.8868 18.4783V18.4642Z" fill="white"/>
<path d="M66.6443 20.2H65.1427C65.0133 20.2 64.9271 20.2846 64.9271 20.4116V32.7953C64.9271 32.9223 65.0133 33.007 65.1427 33.007H66.6012C66.7521 33.007 66.8599 32.9012 66.8599 32.753V20.4116C66.8599 20.2846 66.7737 20.2 66.6443 20.2Z" fill="white"/>
</g>
<defs>
<clipPath id="clip0_1_34">
<rect width="25" height="27" fill="white" transform="translate(5.00006 4)"/>
</clipPath>
<clipPath id="clip1_1_34">
<rect width="50" height="32" fill="white" transform="translate(42 1)"/>
</clipPath>
</defs>
</svg>
