<svg width="1899" height="491" viewBox="0 0 1899 491" fill="none" xmlns="http://www.w3.org/2000/svg">
<path d="M1894.52 170.558H1419.4V171.055H1894.52V170.558Z" fill="white"/>
<path d="M1581.43 170.807H1580.93V490.35H1581.43V170.807Z" fill="white"/>
<path d="M1564.91 490.35H1564.41V187.032H1419.4V186.535H1564.91V490.35Z" fill="white"/>
<g opacity="0.91">
<path d="M1549.1 490.35H1548.6V205.006H1419.57V204.508H1549.1V490.35Z" fill="white"/>
</g>
<g opacity="0.82">
<path d="M1533.28 490.35H1532.78V222.984H1419.74V222.486H1533.28V490.35Z" fill="white"/>
</g>
<g opacity="0.73">
<path d="M1517.47 490.35H1516.97V240.958H1419.92V240.46H1517.47V490.35Z" fill="white"/>
</g>
<g opacity="0.64">
<path d="M1501.65 490.35H1501.15V258.931H1420.09V258.433H1501.65V490.35Z" fill="white"/>
</g>
<g opacity="0.54">
<path d="M1485.83 490.35H1485.33V276.904H1420.26V276.406H1485.83V490.35Z" fill="white"/>
</g>
<g opacity="0.45">
<path d="M1470.02 490.35H1469.52V294.878H1420.42V294.38H1470.02V490.35Z" fill="white"/>
</g>
<g opacity="0.36">
<path d="M1454.2 490.35H1453.7V312.856H1420.59V312.358H1454.2V490.35Z" fill="white"/>
</g>
<g opacity="0.27">
<path d="M1438.39 490.35H1437.89V330.83H1420.76V330.332H1438.39V490.35Z" fill="white"/>
</g>
<mask id="mask0_2035_5" style="mask-type:luminance" maskUnits="userSpaceOnUse" x="1581" y="170" width="312" height="321">
<path d="M1892.27 170.558H1581.35V490.195H1892.27V170.558Z" fill="white"/>
</mask>
<g mask="url(#mask0_2035_5)">
<g opacity="0.58">
<path d="M1885.35 474.98H1581.3V474.482H1884.85V170.841H1885.35V474.98Z" fill="white"/>
</g>
<g opacity="0.6">
<path d="M1869.35 458.988H1565.3V458.49H1868.86V154.85H1869.35V458.988Z" fill="white"/>
</g>
<g opacity="0.63">
<path d="M1853.35 442.996H1549.3V442.499H1852.85V138.858H1853.35V442.996Z" fill="white"/>
</g>
<g opacity="0.65">
<path d="M1837.34 427.005H1533.29V426.507H1836.85V122.871H1837.34V427.005Z" fill="white"/>
</g>
<g opacity="0.68">
<path d="M1821.34 411.018H1517.29V410.52H1820.84V106.879H1821.34V411.018Z" fill="white"/>
</g>
<g opacity="0.7">
<path d="M1805.34 395.026H1501.28V394.528H1804.84V90.8872H1805.34V395.026Z" fill="white"/>
</g>
<g opacity="0.73">
<path d="M1789.34 379.034H1485.28V378.536H1788.84V74.8953H1789.34V379.034Z" fill="white"/>
</g>
<g opacity="0.75">
<path d="M1773.33 363.042H1469.28V362.544H1772.83V58.9084H1773.33V363.042Z" fill="white"/>
</g>
<g opacity="0.78">
<path d="M1757.33 347.055H1453.28V346.558H1756.83V42.9166H1757.33V347.055Z" fill="white"/>
</g>
<g opacity="0.8">
<path d="M1741.32 331.064H1437.27V330.566H1740.83V26.9248H1741.32V331.064Z" fill="white"/>
</g>
<g opacity="0.83">
<path d="M1725.32 315.072H1421.27V314.574H1724.83V10.9329H1725.32V315.072Z" fill="white"/>
</g>
<g opacity="0.85">
<path d="M1709.32 299.08H1405.27V298.582H1708.82V-5.05389H1709.32V299.08Z" fill="white"/>
</g>
<g opacity="0.88">
<path d="M1693.32 283.093H1389.26V282.595H1692.82V-21.0458H1693.32V283.093Z" fill="white"/>
</g>
<g opacity="0.9">
<path d="M1677.31 267.101H1373.26V266.603H1676.81V-37.0376H1677.31V267.101Z" fill="white"/>
</g>
<g opacity="0.93">
<path d="M1661.31 251.109H1357.25V250.611H1660.81V-53.0294H1661.31V251.109Z" fill="white"/>
</g>
<g opacity="0.95">
<path d="M1645.31 235.117H1341.26V234.62H1644.81V-69.0163H1645.31V235.117Z" fill="white"/>
</g>
<g opacity="0.98">
<path d="M1629.3 219.126H1325.25V218.628H1628.81V-85.0082H1629.3V219.126Z" fill="white"/>
</g>
<path d="M1613.3 203.139H1309.25V202.641H1612.8V-101H1613.3V203.139Z" fill="white"/>
</g>
<mask id="mask1_2035_5" style="mask-type:luminance" maskUnits="userSpaceOnUse" x="1420" y="8" width="474" height="483">
<path d="M1420.91 8.74725H1893.27V160.919V490.195H1420.91V8.74725Z" fill="white"/>
</mask>
<g mask="url(#mask1_2035_5)">
<path d="M1740.81 330.864L1740.64 330.69L1420.82 10.6044L1421.18 10.2559L1740.81 330.162L1893.3 177.787L1893.66 178.135L1740.81 330.864Z" fill="white"/>
<g opacity="0.96">
<path d="M1740.81 346.871L1740.64 346.697L1420.82 26.6111L1421.18 26.2626L1740.81 346.169L1893.39 193.709L1893.74 194.058L1740.81 346.871Z" fill="white"/>
</g>
<g opacity="0.91">
<path d="M1740.81 362.878L1740.64 362.704L1420.82 42.6179L1421.18 42.2694L1740.81 362.176L1893.47 209.631L1893.83 209.98L1740.81 362.878Z" fill="white"/>
</g>
<g opacity="0.87">
<path d="M1740.81 378.885L1740.64 378.71L1420.82 58.6247L1421.18 58.2762L1740.81 378.183L1893.56 225.553L1893.91 225.902L1740.81 378.885Z" fill="white"/>
</g>
<g opacity="0.82">
<path d="M1740.81 394.892L1740.64 394.717L1420.82 74.6315L1421.18 74.283L1740.81 394.19L1893.64 241.475L1894 241.824L1740.81 394.892Z" fill="white"/>
</g>
<g opacity="0.78">
<path d="M1740.81 410.898L1740.64 410.724L1420.82 90.6383L1421.18 90.2897L1740.81 410.196L1893.73 257.398L1894.08 257.746L1740.81 410.898Z" fill="white"/>
</g>
<g opacity="0.74">
<path d="M1740.81 426.905L1740.64 426.731L1420.82 106.645L1421.18 106.297L1740.81 426.203L1893.81 273.32L1894.17 273.668L1740.81 426.905Z" fill="white"/>
</g>
<g opacity="0.69">
<path d="M1740.81 442.912L1740.64 442.738L1420.82 122.652L1421.18 122.303L1740.81 442.21L1893.9 289.242L1894.25 289.59L1740.81 442.912Z" fill="white"/>
</g>
<g opacity="0.65">
<path d="M1740.81 458.919L1740.64 458.744L1420.82 138.659L1421.18 138.31L1740.81 458.217L1893.98 305.164L1894.34 305.512L1740.81 458.919Z" fill="white"/>
</g>
<g opacity="0.6">
<path d="M1740.81 474.925L1740.64 474.751L1420.82 154.665L1421.18 154.317L1740.81 474.223L1894.07 321.086L1894.42 321.435L1740.81 474.925Z" fill="white"/>
</g>
<g opacity="0.56">
<path d="M1740.81 490.932L1740.64 490.758L1420.82 170.672L1421.18 170.324L1740.81 490.23L1894.15 337.008L1894.51 337.357L1740.81 490.932Z" fill="white"/>
</g>
<g opacity="0.52">
<path d="M1740.81 506.939L1740.64 506.765L1420.82 186.679L1421.18 186.33L1740.81 506.237L1894.24 352.93L1894.59 353.279L1740.81 506.939Z" fill="white"/>
</g>
<g opacity="0.47">
<path d="M1740.81 522.946L1740.64 522.772L1420.82 202.686L1421.18 202.337L1740.81 522.244L1894.32 368.853L1894.68 369.201L1740.81 522.946Z" fill="white"/>
</g>
<g opacity="0.43">
<path d="M1740.81 538.953L1740.64 538.778L1420.82 218.693L1421.18 218.344L1740.81 538.251L1894.41 384.775L1894.76 385.123L1740.81 538.953Z" fill="white"/>
</g>
<g opacity="0.38">
<path d="M1740.81 554.959L1740.64 554.785L1420.82 234.699L1421.18 234.351L1740.81 554.257L1894.49 400.697L1894.84 401.045L1740.81 554.959Z" fill="white"/>
</g>
<g opacity="0.34">
<path d="M1740.81 570.966L1740.64 570.792L1420.82 250.706L1421.18 250.358L1740.81 570.264L1894.58 416.614L1894.93 416.967L1740.81 570.966Z" fill="white"/>
</g>
<g opacity="0.3">
<path d="M1740.81 586.973L1740.64 586.799L1420.82 266.713L1421.18 266.364L1740.81 586.271L1894.66 432.536L1895.01 432.89L1740.81 586.973Z" fill="white"/>
</g>
<g opacity="0.25">
<path d="M1740.81 602.98L1740.64 602.805L1420.82 282.72L1421.18 282.371L1740.81 602.278L1894.74 448.458L1895.1 448.812L1740.81 602.98Z" fill="white"/>
</g>
<g opacity="0.21">
<path d="M1740.81 618.986L1740.64 618.812L1420.82 298.726L1421.18 298.378L1740.81 618.284L1894.83 464.38L1895.18 464.734L1740.81 618.986Z" fill="white"/>
</g>
<g opacity="0.16">
<path d="M1740.81 634.993L1740.64 634.819L1420.82 314.733L1421.18 314.385L1740.81 634.291L1894.92 480.303L1895.27 480.656L1740.81 634.993Z" fill="white"/>
</g>
<g opacity="0.12">
<path d="M1740.81 651L1740.64 650.826L1420.82 330.74L1421.18 330.391L1740.81 650.298L1895 496.225L1895.35 496.578L1740.81 651Z" fill="white"/>
</g>
<g opacity="0.18">
<path d="M1892.22 160.97L1580.3 474.831L1580.66 475.182L1892.58 161.321L1892.22 160.97Z" fill="white"/>
</g>
<g opacity="0.23">
<path d="M1892.22 144.889L1580.3 458.75L1580.66 459.1L1892.58 145.24L1892.22 144.889Z" fill="white"/>
</g>
<g opacity="0.28">
<path d="M1892.22 128.807L1580.3 442.668L1580.66 443.019L1892.58 129.158L1892.22 128.807Z" fill="white"/>
</g>
<g opacity="0.33">
<path d="M1892.23 112.726L1580.3 426.587L1580.66 426.938L1892.58 113.077L1892.23 112.726Z" fill="white"/>
</g>
<g opacity="0.38">
<path d="M1892.22 96.6448L1580.3 410.506L1580.65 410.856L1892.57 96.9956L1892.22 96.6448Z" fill="white"/>
</g>
<g opacity="0.44">
<path d="M1892.22 80.5635L1580.3 394.424L1580.65 394.775L1892.57 80.9143L1892.22 80.5635Z" fill="white"/>
</g>
<g opacity="0.49">
<path d="M1892.22 64.4822L1580.3 378.343L1580.65 378.694L1892.58 64.833L1892.22 64.4822Z" fill="white"/>
</g>
<g opacity="0.54">
<path d="M1892.22 48.4009L1580.3 362.262L1580.65 362.612L1892.58 48.7517L1892.22 48.4009Z" fill="white"/>
</g>
<g opacity="0.59">
<path d="M1892.22 32.3246L1580.3 346.185L1580.66 346.536L1892.58 32.6754L1892.22 32.3246Z" fill="white"/>
</g>
<g opacity="0.64">
<path d="M1892.22 16.2433L1580.3 330.104L1580.66 330.455L1892.58 16.5941L1892.22 16.2433Z" fill="white"/>
</g>
<g opacity="0.69">
<path d="M1892.22 0.161964L1580.3 314.023L1580.65 314.374L1892.57 0.512786L1892.22 0.161964Z" fill="white"/>
</g>
<g opacity="0.18">
<path d="M1740.94 9.81162L1581.04 171.84L1581.39 172.19L1741.3 10.1612L1740.94 9.81162Z" fill="white"/>
</g>
<g opacity="0.23">
<path d="M1756.15 8.93195L1580.9 186.006L1581.26 186.356L1756.5 9.28204L1756.15 8.93195Z" fill="white"/>
</g>
<g opacity="0.28">
<path d="M1771.23 7.91516L1580.87 200.261L1581.23 200.611L1771.59 8.26524L1771.23 7.91516Z" fill="white"/>
</g>
<g opacity="0.33">
<path d="M1786.31 6.90688L1580.84 214.522L1581.19 214.872L1786.66 7.25696L1786.31 6.90688Z" fill="white"/>
</g>
<g opacity="0.38">
<path d="M1801.51 6.01917L1580.7 228.675L1581.05 229.026L1801.87 6.36962L1801.51 6.01917Z" fill="white"/>
</g>
<g opacity="0.44">
<path d="M1816.65 5.06541L1580.62 242.896L1580.98 243.246L1817.01 5.41598L1816.65 5.06541Z" fill="white"/>
</g>
<g opacity="0.49">
<path d="M1831.74 4.0617L1580.58 257.139L1580.93 257.49L1832.09 4.41227L1831.74 4.0617Z" fill="white"/>
</g>
<g opacity="0.54">
<path d="M1846.83 3.05956L1580.54 271.388L1580.89 271.739L1847.19 3.41014L1846.83 3.05956Z" fill="white"/>
</g>
<g opacity="0.59">
<path d="M1861.92 2.05592L1580.49 285.632L1580.84 285.983L1862.27 2.40649L1861.92 2.05592Z" fill="white"/>
</g>
<g opacity="0.64">
<path d="M1877.12 1.15694L1580.35 299.777L1580.7 300.128L1877.48 1.50776L1877.12 1.15694Z" fill="white"/>
</g>
<g opacity="0.69">
<path d="M1892.22 0.161964L1580.3 314.023L1580.65 314.374L1892.57 0.512786L1892.22 0.161964Z" fill="white"/>
</g>
</g>
<g opacity="0.14">
<path d="M1868.89 10.2409H1868.39V490.35H1868.89V10.2409Z" fill="white"/>
</g>
<g opacity="0.25">
<path d="M1852.88 10.2409H1852.38V490.35H1852.88V10.2409Z" fill="white"/>
</g>
<g opacity="0.35">
<path d="M1836.88 10.2409H1836.38V490.35H1836.88V10.2409Z" fill="white"/>
</g>
<g opacity="0.46">
<path d="M1820.87 10.2409H1820.37V490.35H1820.87V10.2409Z" fill="white"/>
</g>
<g opacity="0.57">
<path d="M1804.86 10.2409H1804.36V490.35H1804.86V10.2409Z" fill="white"/>
</g>
<g opacity="0.68">
<path d="M1788.85 10.2409H1788.35V490.35H1788.85V10.2409Z" fill="white"/>
</g>
<g opacity="0.79">
<path d="M1772.85 10.2409H1772.35V490.35H1772.85V10.2409Z" fill="white"/>
</g>
<g opacity="0.89">
<path d="M1756.84 10.2409H1756.34V490.35H1756.84V10.2409Z" fill="white"/>
</g>
<path d="M1740.84 10.2409H1740.34V490.35H1740.84V10.2409Z" fill="white"/>
<g opacity="0.14">
<path d="M1597.33 10.2409H1596.84V490.35H1597.33V10.2409Z" fill="white"/>
</g>
<g opacity="0.25">
<path d="M1613.34 10.2409H1612.84V490.35H1613.34V10.2409Z" fill="white"/>
</g>
<g opacity="0.35">
<path d="M1629.35 10.2409H1628.85V490.35H1629.35V10.2409Z" fill="white"/>
</g>
<g opacity="0.46">
<path d="M1645.35 10.2409H1644.85V490.35H1645.35V10.2409Z" fill="white"/>
</g>
<g opacity="0.57">
<path d="M1661.36 10.2409H1660.86V490.35H1661.36V10.2409Z" fill="white"/>
</g>
<g opacity="0.68">
<path d="M1677.37 10.2409H1676.87V490.35H1677.37V10.2409Z" fill="white"/>
</g>
<g opacity="0.79">
<path d="M1693.38 10.2409H1692.88V490.35H1693.38V10.2409Z" fill="white"/>
</g>
<g opacity="0.89">
<path d="M1709.38 10.2409H1708.88V490.35H1709.38V10.2409Z" fill="white"/>
</g>
<path d="M1725.39 10.2409H1724.89V490.35H1725.39V10.2409Z" fill="white"/>
<g opacity="0.14">
<path d="M1892.52 137.827H1581.31V138.225H1892.52V137.827Z" fill="white"/>
</g>
<g opacity="0.25">
<path d="M1892.52 121.83H1581.31V122.229H1892.52V121.83Z" fill="white"/>
</g>
<g opacity="0.35">
<path d="M1892.52 105.838H1581.31V106.237H1892.52V105.838Z" fill="white"/>
</g>
<g opacity="0.46">
<path d="M1892.52 89.8416H1581.31V90.2399H1892.52V89.8416Z" fill="white"/>
</g>
<g opacity="0.57">
<path d="M1892.52 73.8497H1581.31V74.248H1892.52V73.8497Z" fill="white"/>
</g>
<g opacity="0.68">
<path d="M1892.52 57.853H1581.31V58.2513H1892.52V57.853Z" fill="white"/>
</g>
<g opacity="0.79">
<path d="M1892.52 41.8611H1581.31V42.2594H1892.52V41.8611Z" fill="white"/>
</g>
<g opacity="0.89">
<path d="M1892.52 25.8643H1581.31V26.2626H1892.52V25.8643Z" fill="white"/>
</g>
<path d="M1892.52 9.87244H1581.31V10.2707H1892.52V9.87244Z" fill="white"/>
<path d="M1421.66 170.558H946.548V171.055H1421.66V170.558Z" fill="white"/>
<path d="M1260.13 170.807H1259.63V490.35H1260.13V170.807Z" fill="white"/>
<path d="M1276.15 490.35H1276.65V187.032H1421.66V186.535H1276.15V490.35Z" fill="white"/>
<g opacity="0.91">
<path d="M1291.97 490.35H1292.46V205.006H1421.49V204.508H1291.97V490.35Z" fill="white"/>
</g>
<g opacity="0.82">
<path d="M1307.78 490.35H1308.28V222.984H1421.32V222.486H1307.78V490.35Z" fill="white"/>
</g>
<g opacity="0.73">
<path d="M1323.6 490.35H1324.1V240.958H1421.15V240.46H1323.6V490.35Z" fill="white"/>
</g>
<g opacity="0.64">
<path d="M1339.42 490.35H1339.91V258.931H1420.98V258.433H1339.42V490.35Z" fill="white"/>
</g>
<g opacity="0.54">
<path d="M1355.23 490.35H1355.73V276.904H1420.81V276.406H1355.23V490.35Z" fill="white"/>
</g>
<g opacity="0.45">
<path d="M1371.05 490.35H1371.54V294.878H1420.64V294.38H1371.05V490.35Z" fill="white"/>
</g>
<g opacity="0.36">
<path d="M1386.87 490.35H1387.36V312.856H1420.47V312.358H1386.87V490.35Z" fill="white"/>
</g>
<g opacity="0.27">
<path d="M1402.68 490.35H1403.18V330.83H1420.3V330.332H1402.68V490.35Z" fill="white"/>
</g>
<mask id="mask2_2035_5" style="mask-type:luminance" maskUnits="userSpaceOnUse" x="948" y="170" width="312" height="321">
<path d="M948.79 490.2L1259.71 490.2V170.563L948.79 170.563V490.2Z" fill="white"/>
</mask>
<g mask="url(#mask2_2035_5)">
<g opacity="0.58">
<path d="M955.711 474.98H1259.76V474.482H956.209V170.841H955.711V474.98Z" fill="white"/>
</g>
<g opacity="0.6">
<path d="M971.715 458.988H1275.77V458.49H972.214V154.85H971.715V458.988Z" fill="white"/>
</g>
<g opacity="0.63">
<path d="M987.715 442.996H1291.77V442.499H988.213V138.858H987.715V442.996Z" fill="white"/>
</g>
<g opacity="0.65">
<path d="M1003.72 427.005H1307.77V426.507H1004.22V122.871H1003.72V427.005Z" fill="white"/>
</g>
<g opacity="0.68">
<path d="M1019.72 411.018H1323.78V410.52H1020.22V106.879H1019.72V411.018Z" fill="white"/>
</g>
<g opacity="0.7">
<path d="M1035.73 395.026H1339.78V394.528H1036.23V90.8872H1035.73V395.026Z" fill="white"/>
</g>
<g opacity="0.73">
<path d="M1051.73 379.034H1355.78V378.536H1052.23V74.8953H1051.73V379.034Z" fill="white"/>
</g>
<g opacity="0.75">
<path d="M1067.73 363.042H1371.78V362.544H1068.23V58.9084H1067.73V363.042Z" fill="white"/>
</g>
<g opacity="0.78">
<path d="M1083.74 347.055H1387.79V346.558H1084.23V42.9166H1083.74V347.055Z" fill="white"/>
</g>
<g opacity="0.8">
<path d="M1099.74 331.064H1403.79V330.566H1100.24V26.9248H1099.74V331.064Z" fill="white"/>
</g>
<g opacity="0.83">
<path d="M1115.74 315.072H1419.8V314.574H1116.24V10.9329H1115.74V315.072Z" fill="white"/>
</g>
<g opacity="0.85">
<path d="M1131.74 299.08H1435.8V298.582H1132.24V-5.05389H1131.74V299.08Z" fill="white"/>
</g>
<g opacity="0.88">
<path d="M1147.75 283.093H1451.8V282.595H1148.25V-21.0458H1147.75V283.093Z" fill="white"/>
</g>
<g opacity="0.9">
<path d="M1163.75 267.101H1467.8V266.603H1164.25V-37.0376H1163.75V267.101Z" fill="white"/>
</g>
<g opacity="0.93">
<path d="M1179.76 251.109H1483.81V250.611H1180.26V-53.0294H1179.76V251.109Z" fill="white"/>
</g>
<g opacity="0.95">
<path d="M1195.76 235.117H1499.81V234.62H1196.25V-69.0163H1195.76V235.117Z" fill="white"/>
</g>
<g opacity="0.98">
<path d="M1211.76 219.126H1515.81V218.628H1212.26V-85.0082H1211.76V219.126Z" fill="white"/>
</g>
<path d="M1227.76 203.139H1531.82V202.641H1228.26V-101H1227.76V203.139Z" fill="white"/>
</g>
<mask id="mask3_2035_5" style="mask-type:luminance" maskUnits="userSpaceOnUse" x="947" y="8" width="474" height="483">
<path d="M1420.15 8.74725H947.793V160.919V490.195H1420.15V8.74725Z" fill="white"/>
</mask>
<g mask="url(#mask3_2035_5)">
<path d="M1100.25 330.864L1100.43 330.69L1420.24 10.6044L1419.89 10.2559L1100.25 330.162L947.759 177.787L947.405 178.135L1100.25 330.864Z" fill="white"/>
<g opacity="0.96">
<path d="M1100.25 346.871L1100.43 346.697L1420.24 26.6111L1419.89 26.2626L1100.25 346.169L947.674 193.709L947.32 194.058L1100.25 346.871Z" fill="white"/>
</g>
<g opacity="0.91">
<path d="M1100.25 362.878L1100.43 362.704L1420.24 42.6179L1419.89 42.2694L1100.25 362.176L947.589 209.631L947.235 209.98L1100.25 362.878Z" fill="white"/>
</g>
<g opacity="0.87">
<path d="M1100.25 378.885L1100.43 378.71L1420.24 58.6247L1419.89 58.2762L1100.25 378.183L947.504 225.553L947.15 225.902L1100.25 378.885Z" fill="white"/>
</g>
<g opacity="0.82">
<path d="M1100.25 394.892L1100.43 394.717L1420.24 74.6315L1419.89 74.283L1100.25 394.19L947.42 241.475L947.066 241.824L1100.25 394.892Z" fill="white"/>
</g>
<g opacity="0.78">
<path d="M1100.25 410.898L1100.43 410.724L1420.24 90.6383L1419.89 90.2897L1100.25 410.196L947.335 257.398L946.981 257.746L1100.25 410.898Z" fill="white"/>
</g>
<g opacity="0.74">
<path d="M1100.25 426.905L1100.43 426.731L1420.24 106.645L1419.89 106.297L1100.25 426.203L947.25 273.32L946.896 273.668L1100.25 426.905Z" fill="white"/>
</g>
<g opacity="0.69">
<path d="M1100.25 442.912L1100.43 442.738L1420.24 122.652L1419.89 122.303L1100.25 442.21L947.165 289.242L946.812 289.59L1100.25 442.912Z" fill="white"/>
</g>
<g opacity="0.65">
<path d="M1100.25 458.919L1100.43 458.744L1420.24 138.659L1419.89 138.31L1100.25 458.217L947.081 305.164L946.727 305.512L1100.25 458.919Z" fill="white"/>
</g>
<g opacity="0.6">
<path d="M1100.25 474.925L1100.43 474.751L1420.24 154.665L1419.89 154.317L1100.25 474.223L946.996 321.086L946.642 321.435L1100.25 474.925Z" fill="white"/>
</g>
<g opacity="0.56">
<path d="M1100.25 490.932L1100.43 490.758L1420.24 170.672L1419.89 170.324L1100.25 490.23L946.911 337.008L946.558 337.357L1100.25 490.932Z" fill="white"/>
</g>
<g opacity="0.52">
<path d="M1100.25 506.939L1100.43 506.765L1420.24 186.679L1419.89 186.33L1100.25 506.237L946.826 352.93L946.473 353.279L1100.25 506.939Z" fill="white"/>
</g>
<g opacity="0.47">
<path d="M1100.25 522.946L1100.43 522.772L1420.24 202.686L1419.89 202.337L1100.25 522.244L946.742 368.853L946.388 369.201L1100.25 522.946Z" fill="white"/>
</g>
<g opacity="0.43">
<path d="M1100.25 538.953L1100.43 538.778L1420.24 218.693L1419.89 218.344L1100.25 538.251L946.657 384.775L946.303 385.123L1100.25 538.953Z" fill="white"/>
</g>
<g opacity="0.38">
<path d="M1100.25 554.959L1100.43 554.785L1420.24 234.699L1419.89 234.351L1100.25 554.257L946.573 400.697L946.219 401.045L1100.25 554.959Z" fill="white"/>
</g>
<g opacity="0.34">
<path d="M1100.25 570.966L1100.43 570.792L1420.24 250.706L1419.89 250.358L1100.25 570.264L946.488 416.614L946.134 416.967L1100.25 570.966Z" fill="white"/>
</g>
<g opacity="0.3">
<path d="M1100.25 586.973L1100.43 586.799L1420.24 266.713L1419.89 266.364L1100.25 586.271L946.403 432.536L946.049 432.89L1100.25 586.973Z" fill="white"/>
</g>
<g opacity="0.25">
<path d="M1100.25 602.98L1100.43 602.805L1420.24 282.72L1419.89 282.371L1100.25 602.278L946.318 448.458L945.964 448.812L1100.25 602.98Z" fill="white"/>
</g>
<g opacity="0.21">
<path d="M1100.25 618.986L1100.43 618.812L1420.24 298.726L1419.89 298.378L1100.25 618.284L946.234 464.38L945.88 464.734L1100.25 618.986Z" fill="white"/>
</g>
<g opacity="0.16">
<path d="M1100.25 634.993L1100.43 634.819L1420.24 314.733L1419.89 314.385L1100.25 634.291L946.149 480.303L945.795 480.656L1100.25 634.993Z" fill="white"/>
</g>
<g opacity="0.12">
<path d="M1100.25 651L1100.43 650.826L1420.24 330.74L1419.89 330.391L1100.25 650.298L946.064 496.225L945.71 496.578L1100.25 651Z" fill="white"/>
</g>
<g opacity="0.18">
<path d="M948.822 161.076L948.468 161.427L1260.39 475.288L1260.74 474.937L948.822 161.076Z" fill="white"/>
</g>
<g opacity="0.23">
<path d="M948.822 144.995L948.468 145.346L1260.39 459.207L1260.74 458.856L948.822 144.995Z" fill="white"/>
</g>
<g opacity="0.28">
<path d="M948.822 128.909L948.469 129.26L1260.39 443.121L1260.74 442.77L948.822 128.909Z" fill="white"/>
</g>
<g opacity="0.33">
<path d="M948.822 112.828L948.469 113.179L1260.39 427.04L1260.74 426.689L948.822 112.828Z" fill="white"/>
</g>
<g opacity="0.38">
<path d="M948.822 96.7469L948.469 97.0977L1260.39 410.958L1260.74 410.608L948.822 96.7469Z" fill="white"/>
</g>
<g opacity="0.44">
<path d="M948.823 80.6659L948.469 81.0167L1260.39 394.878L1260.74 394.527L948.823 80.6659Z" fill="white"/>
</g>
<g opacity="0.49">
<path d="M948.828 64.5848L948.474 64.9357L1260.39 378.796L1260.75 378.446L948.828 64.5848Z" fill="white"/>
</g>
<g opacity="0.54">
<path d="M948.828 48.5038L948.474 48.8546L1260.39 362.715L1260.75 362.365L948.828 48.5038Z" fill="white"/>
</g>
<g opacity="0.59">
<path d="M948.828 32.4178L948.475 32.7686L1260.4 346.629L1260.75 346.279L948.828 32.4178Z" fill="white"/>
</g>
<g opacity="0.64">
<path d="M948.828 16.3368L948.475 16.6876L1260.4 330.548L1260.75 330.198L948.828 16.3368Z" fill="white"/>
</g>
<g opacity="0.69">
<path d="M948.829 0.255745L948.475 0.606567L1260.4 314.467L1260.75 314.117L948.829 0.255745Z" fill="white"/>
</g>
<g opacity="0.18">
<path d="M1100.1 9.98428L1099.74 10.3339L1259.65 172.363L1260 172.013L1100.1 9.98428Z" fill="white"/>
</g>
<g opacity="0.23">
<path d="M1084.9 9.07173L1084.54 9.42181L1259.79 186.496L1260.14 186.146L1084.9 9.07173Z" fill="white"/>
</g>
<g opacity="0.28">
<path d="M1069.81 8.0547L1069.46 8.40479L1259.82 200.751L1260.17 200.401L1069.81 8.0547Z" fill="white"/>
</g>
<g opacity="0.33">
<path d="M1054.73 7.0425L1054.38 7.39258L1259.84 215.007L1260.2 214.657L1054.73 7.0425Z" fill="white"/>
</g>
<g opacity="0.38">
<path d="M1039.53 6.13545L1039.17 6.4859L1259.99 229.142L1260.34 228.792L1039.53 6.13545Z" fill="white"/>
</g>
<g opacity="0.44">
<path d="M1024.39 5.16688L1024.04 5.51746L1260.07 243.348L1260.42 242.997L1024.39 5.16688Z" fill="white"/>
</g>
<g opacity="0.49">
<path d="M1009.3 4.16627L1008.95 4.51685L1260.11 257.594L1260.47 257.244L1009.3 4.16627Z" fill="white"/>
</g>
<g opacity="0.54">
<path d="M994.208 3.16078L993.854 3.51135L1260.15 271.84L1260.51 271.489L994.208 3.16078Z" fill="white"/>
</g>
<g opacity="0.59">
<path d="M979.125 2.16011L978.771 2.51068L1260.2 286.087L1260.56 285.736L979.125 2.16011Z" fill="white"/>
</g>
<g opacity="0.64">
<path d="M963.927 1.25562L963.573 1.60645L1260.35 300.227L1260.7 299.876L963.927 1.25562Z" fill="white"/>
</g>
<g opacity="0.69">
<path d="M948.829 0.255745L948.475 0.606567L1260.4 314.467L1260.75 314.117L948.829 0.255745Z" fill="white"/>
</g>
</g>
<g opacity="0.14">
<path d="M972.677 10.2409H972.179V490.35H972.677V10.2409Z" fill="white"/>
</g>
<g opacity="0.25">
<path d="M988.681 10.2409H988.183V490.35H988.681V10.2409Z" fill="white"/>
</g>
<g opacity="0.35">
<path d="M1004.69 10.2409H1004.19V490.35H1004.69V10.2409Z" fill="white"/>
</g>
<g opacity="0.46">
<path d="M1020.7 10.2409H1020.2V490.35H1020.7V10.2409Z" fill="white"/>
</g>
<g opacity="0.57">
<path d="M1036.7 10.2409H1036.21V490.35H1036.7V10.2409Z" fill="white"/>
</g>
<g opacity="0.68">
<path d="M1052.71 10.2409H1052.21V490.35H1052.71V10.2409Z" fill="white"/>
</g>
<g opacity="0.79">
<path d="M1068.72 10.2409H1068.22V490.35H1068.72V10.2409Z" fill="white"/>
</g>
<g opacity="0.89">
<path d="M1084.72 10.2409H1084.22V490.35H1084.72V10.2409Z" fill="white"/>
</g>
<path d="M1100.73 10.2409H1100.23V490.35H1100.73V10.2409Z" fill="white"/>
<g opacity="0.14">
<path d="M1244.23 10.2409H1243.73V490.35H1244.23V10.2409Z" fill="white"/>
</g>
<g opacity="0.25">
<path d="M1228.22 10.2409H1227.73V490.35H1228.22V10.2409Z" fill="white"/>
</g>
<g opacity="0.35">
<path d="M1212.22 10.2409H1211.72V490.35H1212.22V10.2409Z" fill="white"/>
</g>
<g opacity="0.46">
<path d="M1196.21 10.2409H1195.71V490.35H1196.21V10.2409Z" fill="white"/>
</g>
<g opacity="0.57">
<path d="M1180.21 10.2409H1179.71V490.35H1180.21V10.2409Z" fill="white"/>
</g>
<g opacity="0.68">
<path d="M1164.2 10.2409H1163.7V490.35H1164.2V10.2409Z" fill="white"/>
</g>
<g opacity="0.79">
<path d="M1148.19 10.2409H1147.69V490.35H1148.19V10.2409Z" fill="white"/>
</g>
<g opacity="0.89">
<path d="M1132.18 10.2409H1131.68V490.35H1132.18V10.2409Z" fill="white"/>
</g>
<path d="M1116.18 10.2409H1115.68V490.35H1116.18V10.2409Z" fill="white"/>
<g opacity="0.14">
<path d="M1259.75 137.827H948.541V138.225H1259.75V137.827Z" fill="white"/>
</g>
<g opacity="0.25">
<path d="M1259.75 121.83H948.541V122.229H1259.75V121.83Z" fill="white"/>
</g>
<g opacity="0.35">
<path d="M1259.75 105.838H948.541V106.237H1259.75V105.838Z" fill="white"/>
</g>
<g opacity="0.46">
<path d="M1259.75 89.8416H948.541V90.2399H1259.75V89.8416Z" fill="white"/>
</g>
<g opacity="0.57">
<path d="M1259.75 73.8497H948.541V74.248H1259.75V73.8497Z" fill="white"/>
</g>
<g opacity="0.68">
<path d="M1259.75 57.853H948.541V58.2513H1259.75V57.853Z" fill="white"/>
</g>
<g opacity="0.79">
<path d="M1259.75 41.8611H948.541V42.2594H1259.75V41.8611Z" fill="white"/>
</g>
<g opacity="0.89">
<path d="M1259.75 25.8643H948.541V26.2626H1259.75V25.8643Z" fill="white"/>
</g>
<path d="M1259.75 9.87244H948.541V10.2707H1259.75V9.87244Z" fill="white"/>
<path d="M948.805 170.558H473.692V171.055H948.805V170.558Z" fill="white"/>
<path d="M635.719 170.807H635.221V490.35H635.719V170.807Z" fill="white"/>
<path d="M619.201 490.35H618.703V187.032H473.692V186.535H619.201V490.35Z" fill="white"/>
<g opacity="0.91">
<path d="M603.386 490.35H602.888V205.006H473.862V204.508H603.386V490.35Z" fill="white"/>
</g>
<g opacity="0.82">
<path d="M587.571 490.35H587.073V222.984H474.031V222.486H587.571V490.35Z" fill="white"/>
</g>
<g opacity="0.73">
<path d="M571.756 490.35H571.258V240.958H474.206V240.46H571.756V490.35Z" fill="white"/>
</g>
<g opacity="0.64">
<path d="M555.936 490.35H555.438V258.931H474.375V258.433H555.936V490.35Z" fill="white"/>
</g>
<g opacity="0.54">
<path d="M540.121 490.35H539.623V276.904H474.544V276.406H540.121V490.35Z" fill="white"/>
</g>
<g opacity="0.45">
<path d="M524.306 490.35H523.808V294.878H474.714V294.38H524.306V490.35Z" fill="white"/>
</g>
<g opacity="0.36">
<path d="M508.491 490.35H507.993V312.856H474.883V312.358H508.491V490.35Z" fill="white"/>
</g>
<g opacity="0.27">
<path d="M492.676 490.35H492.178V330.83H475.053V330.332H492.676V490.35Z" fill="white"/>
</g>
<mask id="mask4_2035_5" style="mask-type:luminance" maskUnits="userSpaceOnUse" x="635" y="170" width="312" height="321">
<path d="M946.563 170.558H635.644V490.195H946.563V170.558Z" fill="white"/>
</mask>
<g mask="url(#mask4_2035_5)">
<g opacity="0.58">
<path d="M939.642 474.98H635.589V474.482H939.144V170.841H939.642V474.98Z" fill="white"/>
</g>
<g opacity="0.6">
<path d="M923.642 458.988H619.585V458.49H923.144V154.85H923.642V458.988Z" fill="white"/>
</g>
<g opacity="0.63">
<path d="M907.638 442.996H603.586V442.499H907.14V138.858H907.638V442.996Z" fill="white"/>
</g>
<g opacity="0.65">
<path d="M891.634 427.005H587.582V426.507H891.136V122.871H891.634V427.005Z" fill="white"/>
</g>
<g opacity="0.68">
<path d="M875.63 411.018H571.577V410.52H875.131V106.879H875.63V411.018Z" fill="white"/>
</g>
<g opacity="0.7">
<path d="M859.625 395.026H555.573V394.528H859.127V90.8872H859.625V395.026Z" fill="white"/>
</g>
<g opacity="0.73">
<path d="M843.626 379.034H539.573V378.536H843.127V74.8953H843.626V379.034Z" fill="white"/>
</g>
<g opacity="0.75">
<path d="M827.621 363.042H523.569V362.544H827.123V58.9084H827.621V363.042Z" fill="white"/>
</g>
<g opacity="0.78">
<path d="M811.617 347.055H507.564V346.558H811.119V42.9166H811.617V347.055Z" fill="white"/>
</g>
<g opacity="0.8">
<path d="M795.613 331.064H491.561V330.566H795.115V26.9248H795.613V331.064Z" fill="white"/>
</g>
<g opacity="0.83">
<path d="M779.614 315.072H475.556V314.574H779.115V10.9329H779.614V315.072Z" fill="white"/>
</g>
<g opacity="0.85">
<path d="M763.609 299.08H459.557V298.582H763.111V-5.05389H763.609V299.08Z" fill="white"/>
</g>
<g opacity="0.88">
<path d="M747.605 283.093H443.552V282.595H747.106V-21.0458H747.605V283.093Z" fill="white"/>
</g>
<g opacity="0.9">
<path d="M731.6 267.101H427.548V266.603H731.102V-37.0376H731.6V267.101Z" fill="white"/>
</g>
<g opacity="0.93">
<path d="M715.601 251.109H411.543V250.611H715.103V-53.0294H715.601V251.109Z" fill="white"/>
</g>
<g opacity="0.95">
<path d="M699.597 235.117H395.544V234.62H699.099V-69.0163H699.597V235.117Z" fill="white"/>
</g>
<g opacity="0.98">
<path d="M683.592 219.126H379.54V218.628H683.094V-85.0082H683.592V219.126Z" fill="white"/>
</g>
<path d="M667.588 203.139H363.536V202.641H667.09V-101H667.588V203.139Z" fill="white"/>
</g>
<mask id="mask5_2035_5" style="mask-type:luminance" maskUnits="userSpaceOnUse" x="475" y="8" width="473" height="483">
<path d="M475.202 8.74725H947.559V160.919V490.195H475.202V8.74725Z" fill="white"/>
</mask>
<g mask="url(#mask5_2035_5)">
<path d="M795.099 330.864L794.925 330.69L475.112 10.6043L475.466 10.2558L795.099 330.162L947.594 177.787L947.948 178.135L795.099 330.864Z" fill="white"/>
<g opacity="0.96">
<path d="M795.099 346.871L794.925 346.697L475.112 26.6111L475.466 26.2626L795.099 346.169L947.679 193.709L948.032 194.057L795.099 346.871Z" fill="white"/>
</g>
<g opacity="0.91">
<path d="M795.099 362.878L794.925 362.704L475.112 42.6179L475.466 42.2693L795.099 362.176L947.763 209.631L948.117 209.98L795.099 362.878Z" fill="white"/>
</g>
<g opacity="0.87">
<path d="M795.099 378.885L794.925 378.71L475.112 58.6246L475.466 58.2761L795.099 378.183L947.848 225.553L948.202 225.902L795.099 378.885Z" fill="white"/>
</g>
<g opacity="0.82">
<path d="M795.099 394.891L794.925 394.717L475.112 74.6314L475.466 74.2829L795.099 394.189L947.933 241.475L948.287 241.824L795.099 394.891Z" fill="white"/>
</g>
<g opacity="0.78">
<path d="M795.099 410.898L794.925 410.724L475.112 90.6382L475.466 90.2897L795.099 410.196L948.017 257.397L948.371 257.746L795.099 410.898Z" fill="white"/>
</g>
<g opacity="0.74">
<path d="M795.099 426.905L794.925 426.731L475.112 106.645L475.466 106.296L795.099 426.203L948.102 273.32L948.456 273.668L795.099 426.905Z" fill="white"/>
</g>
<g opacity="0.69">
<path d="M795.099 442.912L794.925 442.738L475.112 122.652L475.466 122.303L795.099 442.21L948.187 289.242L948.541 289.59L795.099 442.912Z" fill="white"/>
</g>
<g opacity="0.65">
<path d="M795.099 458.919L794.925 458.744L475.112 138.659L475.466 138.31L795.099 458.217L948.272 305.164L948.625 305.512L795.099 458.919Z" fill="white"/>
</g>
<g opacity="0.6">
<path d="M795.099 474.925L794.925 474.751L475.112 154.665L475.466 154.317L795.099 474.223L948.356 321.086L948.71 321.435L795.099 474.925Z" fill="white"/>
</g>
<g opacity="0.56">
<path d="M795.099 490.932L794.925 490.758L475.112 170.672L475.466 170.324L795.099 490.23L948.441 337.008L948.795 337.357L795.099 490.932Z" fill="white"/>
</g>
<g opacity="0.52">
<path d="M795.099 506.939L794.925 506.765L475.112 186.679L475.466 186.33L795.099 506.237L948.526 352.93L948.879 353.279L795.099 506.939Z" fill="white"/>
</g>
<g opacity="0.47">
<path d="M795.099 522.946L794.925 522.771L475.112 202.686L475.466 202.337L795.099 522.244L948.61 368.852L948.964 369.201L795.099 522.946Z" fill="white"/>
</g>
<g opacity="0.43">
<path d="M795.099 538.952L794.925 538.778L475.112 218.692L475.466 218.344L795.099 538.25L948.695 384.775L949.049 385.123L795.099 538.952Z" fill="white"/>
</g>
<g opacity="0.38">
<path d="M795.099 554.959L794.925 554.785L475.112 234.699L475.466 234.351L795.099 554.257L948.78 400.697L949.134 401.045L795.099 554.959Z" fill="white"/>
</g>
<g opacity="0.34">
<path d="M795.099 570.966L794.925 570.792L475.112 250.706L475.466 250.357L795.099 570.264L948.864 416.614L949.218 416.967L795.099 570.966Z" fill="white"/>
</g>
<g opacity="0.3">
<path d="M795.099 586.973L794.925 586.799L475.112 266.713L475.466 266.364L795.099 586.271L948.949 432.536L949.303 432.89L795.099 586.973Z" fill="white"/>
</g>
<g opacity="0.25">
<path d="M795.099 602.98L794.925 602.805L475.112 282.72L475.466 282.371L795.099 602.278L949.034 448.458L949.388 448.812L795.099 602.98Z" fill="white"/>
</g>
<g opacity="0.21">
<path d="M795.099 618.986L794.925 618.812L475.112 298.726L475.466 298.378L795.099 618.284L949.119 464.38L949.472 464.734L795.099 618.986Z" fill="white"/>
</g>
<g opacity="0.16">
<path d="M795.099 634.993L794.925 634.819L475.112 314.733L475.466 314.385L795.099 634.291L949.208 480.302L949.557 480.656L795.099 634.993Z" fill="white"/>
</g>
<g opacity="0.12">
<path d="M795.099 651L794.925 650.826L475.112 330.74L475.466 330.391L795.099 650.298L949.293 496.225L949.642 496.578L795.099 651Z" fill="white"/>
</g>
<g opacity="0.18">
<path d="M946.541 160.998L634.62 474.858L634.974 475.209L946.894 161.348L946.541 160.998Z" fill="white"/>
</g>
<g opacity="0.23">
<path d="M946.541 144.916L634.62 458.777L634.974 459.128L946.894 145.267L946.541 144.916Z" fill="white"/>
</g>
<g opacity="0.28">
<path d="M946.541 128.835L634.621 442.696L634.974 443.047L946.895 129.186L946.541 128.835Z" fill="white"/>
</g>
<g opacity="0.33">
<path d="M946.542 112.754L634.621 426.614L634.975 426.965L946.895 113.104L946.542 112.754Z" fill="white"/>
</g>
<g opacity="0.38">
<path d="M946.537 96.6724L634.617 410.533L634.97 410.884L946.891 97.0232L946.537 96.6724Z" fill="white"/>
</g>
<g opacity="0.44">
<path d="M946.538 80.5911L634.617 394.452L634.971 394.803L946.891 80.9419L946.538 80.5911Z" fill="white"/>
</g>
<g opacity="0.49">
<path d="M946.538 64.5098L634.618 378.371L634.971 378.721L946.892 64.8606L946.538 64.5098Z" fill="white"/>
</g>
<g opacity="0.54">
<path d="M946.539 48.4285L634.618 362.289L634.972 362.64L946.892 48.7793L946.539 48.4285Z" fill="white"/>
</g>
<g opacity="0.59">
<path d="M946.539 32.3472L634.618 346.208L634.972 346.559L946.892 32.698L946.539 32.3472Z" fill="white"/>
</g>
<g opacity="0.64">
<path d="M946.539 16.2659L634.619 330.127L634.972 330.477L946.893 16.6167L946.539 16.2659Z" fill="white"/>
</g>
<g opacity="0.69">
<path d="M946.535 0.184504L634.614 314.045L634.968 314.396L946.888 0.535326L946.535 0.184504Z" fill="white"/>
</g>
<g opacity="0.18">
<path d="M795.285 9.86422L635.378 171.893L635.733 172.243L795.64 10.2138L795.285 9.86422Z" fill="white"/>
</g>
<g opacity="0.23">
<path d="M810.477 8.9734L635.233 186.047L635.587 186.398L810.831 9.32348L810.477 8.9734Z" fill="white"/>
</g>
<g opacity="0.28">
<path d="M825.56 7.95657L635.202 200.303L635.556 200.653L825.915 8.30666L825.56 7.95657Z" fill="white"/>
</g>
<g opacity="0.33">
<path d="M840.635 6.94337L635.166 214.558L635.52 214.908L840.989 7.29346L840.635 6.94337Z" fill="white"/>
</g>
<g opacity="0.38">
<path d="M855.84 6.0515L635.023 228.708L635.377 229.058L856.194 6.40195L855.84 6.0515Z" fill="white"/>
</g>
<g opacity="0.44">
<path d="M870.974 5.09452L634.944 242.925L635.298 243.275L871.328 5.4451L870.974 5.09452Z" fill="white"/>
</g>
<g opacity="0.49">
<path d="M886.06 4.09098L634.898 257.169L635.252 257.519L886.414 4.44155L886.06 4.09098Z" fill="white"/>
</g>
<g opacity="0.54">
<path d="M901.15 3.08867L634.852 271.417L635.206 271.768L901.504 3.43925L901.15 3.08867Z" fill="white"/>
</g>
<g opacity="0.59">
<path d="M916.242 2.08502L634.812 285.661L635.165 286.012L916.595 2.43559L916.242 2.08502Z" fill="white"/>
</g>
<g opacity="0.64">
<path d="M931.439 1.18445L634.665 299.805L635.019 300.156L931.793 1.53527L931.439 1.18445Z" fill="white"/>
</g>
<g opacity="0.69">
<path d="M946.535 0.184504L634.614 314.045L634.968 314.396L946.888 0.535326L946.535 0.184504Z" fill="white"/>
</g>
</g>
<g opacity="0.14">
<path d="M923.179 10.2409H922.681V490.35H923.179V10.2409Z" fill="white"/>
</g>
<g opacity="0.25">
<path d="M907.17 10.2409H906.671V490.35H907.17V10.2409Z" fill="white"/>
</g>
<g opacity="0.35">
<path d="M891.165 10.2409H890.667V490.35H891.165V10.2409Z" fill="white"/>
</g>
<g opacity="0.46">
<path d="M875.156 10.2409H874.658V490.35H875.156V10.2409Z" fill="white"/>
</g>
<g opacity="0.57">
<path d="M859.152 10.2409H858.653V490.35H859.152V10.2409Z" fill="white"/>
</g>
<g opacity="0.68">
<path d="M843.142 10.2409H842.644V490.35H843.142V10.2409Z" fill="white"/>
</g>
<g opacity="0.79">
<path d="M827.138 10.2409H826.64V490.35H827.138V10.2409Z" fill="white"/>
</g>
<g opacity="0.89">
<path d="M811.129 10.2409H810.63V490.35H811.129V10.2409Z" fill="white"/>
</g>
<path d="M795.124 10.2409H794.626V490.35H795.124V10.2409Z" fill="white"/>
<g opacity="0.14">
<path d="M651.624 10.2409H651.125V490.35H651.624V10.2409Z" fill="white"/>
</g>
<g opacity="0.25">
<path d="M667.628 10.2409H667.13V490.35H667.628V10.2409Z" fill="white"/>
</g>
<g opacity="0.35">
<path d="M683.637 10.2409H683.139V490.35H683.637V10.2409Z" fill="white"/>
</g>
<g opacity="0.46">
<path d="M699.642 10.2409H699.144V490.35H699.642V10.2409Z" fill="white"/>
</g>
<g opacity="0.57">
<path d="M715.651 10.2409H715.153V490.35H715.651V10.2409Z" fill="white"/>
</g>
<g opacity="0.68">
<path d="M731.655 10.2409H731.157V490.35H731.655V10.2409Z" fill="white"/>
</g>
<g opacity="0.79">
<path d="M747.665 10.2409H747.167V490.35H747.665V10.2409Z" fill="white"/>
</g>
<g opacity="0.89">
<path d="M763.669 10.2409H763.171V490.35H763.669V10.2409Z" fill="white"/>
</g>
<path d="M779.678 10.2409H779.18V490.35H779.678V10.2409Z" fill="white"/>
<g opacity="0.14">
<path d="M946.812 137.827H635.599V138.225H946.812V137.827Z" fill="white"/>
</g>
<g opacity="0.25">
<path d="M946.812 121.83H635.599V122.229H946.812V121.83Z" fill="white"/>
</g>
<g opacity="0.35">
<path d="M946.812 105.838H635.599V106.237H946.812V105.838Z" fill="white"/>
</g>
<g opacity="0.46">
<path d="M946.812 89.8416H635.599V90.2399H946.812V89.8416Z" fill="white"/>
</g>
<g opacity="0.57">
<path d="M946.812 73.8497H635.599V74.248H946.812V73.8497Z" fill="white"/>
</g>
<g opacity="0.68">
<path d="M946.812 57.853H635.599V58.2513H946.812V57.853Z" fill="white"/>
</g>
<g opacity="0.79">
<path d="M946.812 41.8611H635.599V42.2594H946.812V41.8611Z" fill="white"/>
</g>
<g opacity="0.89">
<path d="M946.812 25.8643H635.599V26.2626H946.812V25.8643Z" fill="white"/>
</g>
<path d="M946.812 9.87244H635.599V10.2707H946.812V9.87244Z" fill="white"/>
<path d="M475.949 170.558H0.836914V171.055H475.949V170.558Z" fill="white"/>
<path d="M314.422 170.807H313.923V490.35H314.422V170.807Z" fill="white"/>
<path d="M330.44 490.35H330.939V187.032H475.949V186.535H330.44V490.35Z" fill="white"/>
<g opacity="0.91">
<path d="M346.255 490.35H346.754V205.006H475.78V204.508H346.255V490.35Z" fill="white"/>
</g>
<g opacity="0.82">
<path d="M362.07 490.35H362.569V222.984H475.61V222.486H362.07V490.35Z" fill="white"/>
</g>
<g opacity="0.73">
<path d="M377.891 490.35H378.389V240.958H475.441V240.46H377.891V490.35Z" fill="white"/>
</g>
<g opacity="0.64">
<path d="M393.706 490.35H394.204V258.931H475.267V258.433H393.706V490.35Z" fill="white"/>
</g>
<g opacity="0.54">
<path d="M409.521 490.35H410.019V276.904H475.097V276.406H409.521V490.35Z" fill="white"/>
</g>
<g opacity="0.45">
<path d="M425.335 490.35H425.834V294.878H474.928V294.38H425.335V490.35Z" fill="white"/>
</g>
<g opacity="0.36">
<path d="M441.155 490.35H441.654V312.856H474.758V312.358H441.155V490.35Z" fill="white"/>
</g>
<g opacity="0.27">
<path d="M456.97 490.35H457.468V330.83H474.589V330.332H456.97V490.35Z" fill="white"/>
</g>
<mask id="mask6_2035_5" style="mask-type:luminance" maskUnits="userSpaceOnUse" x="3" y="170" width="311" height="321">
<path d="M3.07898 490.2L313.998 490.2L313.998 170.563L3.07898 170.563L3.07898 490.2Z" fill="white"/>
</mask>
<g mask="url(#mask6_2035_5)">
<g opacity="0.58">
<path d="M10 474.98H314.052V474.482H10.4983V170.841H10V474.98Z" fill="white"/>
</g>
<g opacity="0.6">
<path d="M26.0044 458.988H330.057V458.49H26.5027V154.85H26.0044V458.988Z" fill="white"/>
</g>
<g opacity="0.63">
<path d="M42.0039 442.996H346.061V442.499H42.5022V138.858H42.0039V442.996Z" fill="white"/>
</g>
<g opacity="0.65">
<path d="M58.0078 427.005H362.06V426.507H58.5061V122.871H58.0078V427.005Z" fill="white"/>
</g>
<g opacity="0.68">
<path d="M74.0122 411.018H378.065V410.52H74.5105V106.879H74.0122V411.018Z" fill="white"/>
</g>
<g opacity="0.7">
<path d="M90.0166 395.026H394.069V394.528H90.5149V90.8872H90.0166V395.026Z" fill="white"/>
</g>
<g opacity="0.73">
<path d="M106.021 379.034H410.073V378.536H106.519V74.8953H106.021V379.034Z" fill="white"/>
</g>
<g opacity="0.75">
<path d="M122.021 363.042H426.073V362.544H122.519V58.9084H122.021V363.042Z" fill="white"/>
</g>
<g opacity="0.78">
<path d="M138.025 347.055H442.077V346.558H138.523V42.9166H138.025V347.055Z" fill="white"/>
</g>
<g opacity="0.8">
<path d="M154.029 331.064H458.082V330.566H154.528V26.9248H154.029V331.064Z" fill="white"/>
</g>
<g opacity="0.83">
<path d="M170.033 315.072H474.086V314.574H170.531V10.9329H170.033V315.072Z" fill="white"/>
</g>
<g opacity="0.85">
<path d="M186.033 299.08H490.085V298.582H186.531V-5.05389H186.033V299.08Z" fill="white"/>
</g>
<g opacity="0.88">
<path d="M202.037 283.093H506.09V282.595H202.535V-21.0458H202.037V283.093Z" fill="white"/>
</g>
<g opacity="0.9">
<path d="M218.042 267.101H522.094V266.603H218.54V-37.0376H218.042V267.101Z" fill="white"/>
</g>
<g opacity="0.93">
<path d="M234.046 251.109H538.098V250.611H234.544V-53.0294H234.046V251.109Z" fill="white"/>
</g>
<g opacity="0.95">
<path d="M250.045 235.117H554.102V234.62H250.543V-69.0163H250.045V235.117Z" fill="white"/>
</g>
<g opacity="0.98">
<path d="M266.049 219.126H570.102V218.628H266.548V-85.0082H266.049V219.126Z" fill="white"/>
</g>
<path d="M282.054 203.139H586.106V202.641H282.552V-101H282.054V203.139Z" fill="white"/>
</g>
<mask id="mask7_2035_5" style="mask-type:luminance" maskUnits="userSpaceOnUse" x="2" y="8" width="473" height="483">
<path d="M474.44 8.74725H2.08252V160.919V490.195H474.44V8.74725Z" fill="white"/>
</mask>
<g mask="url(#mask7_2035_5)">
<path d="M154.543 330.864L154.717 330.69L474.53 10.6044L474.176 10.2559L154.543 330.162L2.04811 177.787L1.69434 178.135L154.543 330.864Z" fill="white"/>
<g opacity="0.96">
<path d="M154.542 346.871L154.717 346.697L474.53 26.6111L474.176 26.2626L154.542 346.169L1.96314 193.709L1.60938 194.058L154.542 346.871Z" fill="white"/>
</g>
<g opacity="0.91">
<path d="M154.543 362.878L154.717 362.704L474.53 42.6179L474.176 42.2694L154.543 362.176L1.87867 209.631L1.5249 209.98L154.543 362.878Z" fill="white"/>
</g>
<g opacity="0.87">
<path d="M154.542 378.885L154.717 378.71L474.529 58.6247L474.176 58.2762L154.542 378.183L1.79371 225.553L1.43994 225.902L154.542 378.885Z" fill="white"/>
</g>
<g opacity="0.82">
<path d="M154.543 394.892L154.717 394.717L474.53 74.6315L474.176 74.283L154.543 394.19L1.70924 241.475L1.35547 241.824L154.543 394.892Z" fill="white"/>
</g>
<g opacity="0.78">
<path d="M154.542 410.898L154.717 410.724L474.529 90.6383L474.176 90.2897L154.542 410.196L1.62428 257.398L1.27051 257.746L154.542 410.898Z" fill="white"/>
</g>
<g opacity="0.74">
<path d="M154.543 426.905L154.717 426.731L474.53 106.645L474.176 106.297L154.543 426.203L1.5398 273.32L1.18604 273.668L154.543 426.905Z" fill="white"/>
</g>
<g opacity="0.69">
<path d="M154.542 442.912L154.717 442.738L474.529 122.652L474.176 122.303L154.542 442.21L1.45484 289.242L1.10107 289.59L154.542 442.912Z" fill="white"/>
</g>
<g opacity="0.65">
<path d="M154.543 458.919L154.717 458.744L474.53 138.659L474.176 138.31L154.543 458.217L1.37037 305.164L1.0166 305.512L154.543 458.919Z" fill="white"/>
</g>
<g opacity="0.6">
<path d="M154.542 474.925L154.717 474.751L474.529 154.665L474.176 154.317L154.542 474.223L1.28541 321.086L0.931641 321.435L154.542 474.925Z" fill="white"/>
</g>
<g opacity="0.56">
<path d="M154.543 490.932L154.717 490.758L474.53 170.672L474.176 170.324L154.543 490.23L1.20094 337.008L0.847168 337.357L154.543 490.932Z" fill="white"/>
</g>
<g opacity="0.52">
<path d="M154.542 506.939L154.717 506.765L474.529 186.679L474.176 186.33L154.542 506.237L1.11598 352.93L0.762207 353.279L154.542 506.939Z" fill="white"/>
</g>
<g opacity="0.47">
<path d="M154.543 522.946L154.717 522.772L474.53 202.686L474.176 202.337L154.543 522.244L1.0315 368.853L0.677734 369.201L154.543 522.946Z" fill="white"/>
</g>
<g opacity="0.43">
<path d="M154.542 538.953L154.717 538.778L474.529 218.693L474.176 218.344L154.542 538.251L0.946543 384.775L0.592773 385.123L154.542 538.953Z" fill="white"/>
</g>
<g opacity="0.38">
<path d="M154.543 554.959L154.717 554.785L474.53 234.699L474.176 234.351L154.543 554.257L0.86207 400.697L0.508301 401.045L154.543 554.959Z" fill="white"/>
</g>
<g opacity="0.34">
<path d="M154.542 570.966L154.717 570.792L474.529 250.706L474.176 250.358L154.542 570.264L0.777109 416.614L0.42334 416.967L154.542 570.966Z" fill="white"/>
</g>
<g opacity="0.3">
<path d="M154.543 586.973L154.717 586.799L474.53 266.713L474.176 266.364L154.543 586.271L0.692637 432.536L0.338867 432.89L154.543 586.973Z" fill="white"/>
</g>
<g opacity="0.25">
<path d="M154.542 602.98L154.717 602.805L474.529 282.72L474.176 282.371L154.542 602.278L0.607676 448.458L0.253906 448.812L154.542 602.98Z" fill="white"/>
</g>
<g opacity="0.21">
<path d="M154.542 618.986L154.717 618.812L474.53 298.726L474.176 298.378L154.542 618.284L0.523203 464.38L0.169434 464.734L154.542 618.986Z" fill="white"/>
</g>
<g opacity="0.16">
<path d="M154.542 634.993L154.717 634.819L474.529 314.733L474.176 314.385L154.542 634.291L0.438242 480.303L0.0844727 480.656L154.542 634.993Z" fill="white"/>
</g>
<g opacity="0.12">
<path d="M154.542 651L154.717 650.826L474.53 330.74L474.176 330.391L154.542 650.298L0.35377 496.225L0 496.578L154.542 651Z" fill="white"/>
</g>
<g opacity="0.18">
<path d="M3.08402 161.049L2.73047 161.4L314.651 475.261L315.005 474.91L3.08402 161.049Z" fill="white"/>
</g>
<g opacity="0.23">
<path d="M3.08402 144.968L2.73047 145.319L314.651 459.18L315.005 458.829L3.08402 144.968Z" fill="white"/>
</g>
<g opacity="0.28">
<path d="M3.08451 128.887L2.73096 129.238L314.652 443.099L315.005 442.748L3.08451 128.887Z" fill="white"/>
</g>
<g opacity="0.33">
<path d="M3.0894 112.801L2.73584 113.152L314.657 427.013L315.01 426.662L3.0894 112.801Z" fill="white"/>
</g>
<g opacity="0.38">
<path d="M3.0894 96.7199L2.73584 97.0707L314.656 410.932L315.01 410.581L3.0894 96.7199Z" fill="white"/>
</g>
<g opacity="0.44">
<path d="M3.08988 80.6389L2.73633 80.9897L314.657 394.851L315.011 394.5L3.08988 80.6389Z" fill="white"/>
</g>
<g opacity="0.49">
<path d="M3.08988 64.5579L2.73633 64.9087L314.657 378.769L315.011 378.419L3.08988 64.5579Z" fill="white"/>
</g>
<g opacity="0.54">
<path d="M3.08988 48.4769L2.73633 48.8277L314.657 362.688L315.011 362.338L3.08988 48.4769Z" fill="white"/>
</g>
<g opacity="0.59">
<path d="M3.09037 32.3908L2.73682 32.7416L314.657 346.602L315.011 346.252L3.09037 32.3908Z" fill="white"/>
</g>
<g opacity="0.64">
<path d="M3.09037 16.3098L2.73682 16.6606L314.657 330.521L315.011 330.171L3.09037 16.3098Z" fill="white"/>
</g>
<g opacity="0.69">
<path d="M3.09086 0.228768L2.7373 0.57959L314.658 314.44L315.012 314.09L3.09086 0.228768Z" fill="white"/>
</g>
<g opacity="0.18">
<path d="M154.337 9.93282L153.982 10.2824L313.889 172.311L314.244 171.962L154.337 9.93282Z" fill="white"/>
</g>
<g opacity="0.23">
<path d="M139.144 9.02797L138.79 9.37805L314.034 186.452L314.388 186.102L139.144 9.02797Z" fill="white"/>
</g>
<g opacity="0.28">
<path d="M124.061 8.01589L123.707 8.36597L314.065 200.712L314.42 200.362L124.061 8.01589Z" fill="white"/>
</g>
<g opacity="0.33">
<path d="M108.983 7.0038L108.628 7.35388L314.097 214.969L314.452 214.619L108.983 7.0038Z" fill="white"/>
</g>
<g opacity="0.38">
<path d="M93.7797 6.10286L93.4258 6.45331L314.243 229.109L314.597 228.759L93.7797 6.10286Z" fill="white"/>
</g>
<g opacity="0.44">
<path d="M78.6536 5.1396L78.2998 5.49017L314.33 243.32L314.684 242.97L78.6536 5.1396Z" fill="white"/>
</g>
<g opacity="0.49">
<path d="M63.5633 4.13404L63.2095 4.48462L314.372 257.562L314.726 257.212L63.5633 4.13404Z" fill="white"/>
</g>
<g opacity="0.54">
<path d="M48.4681 3.13343L48.1143 3.48401L314.412 271.813L314.766 271.462L48.4681 3.13343Z" fill="white"/>
</g>
<g opacity="0.59">
<path d="M33.3851 2.12788L33.0312 2.47845L314.461 286.055L314.815 285.704L33.3851 2.12788Z" fill="white"/>
</g>
<g opacity="0.64">
<path d="M18.189 1.22858L17.8354 1.57941L314.61 300.2L314.963 299.849L18.189 1.22858Z" fill="white"/>
</g>
<g opacity="0.69">
<path d="M3.09037 0.228768L2.73682 0.57959L314.657 314.44L315.011 314.09L3.09037 0.228768Z" fill="white"/>
</g>
</g>
<g opacity="0.14">
<path d="M26.966 10.2409H26.4678V490.35H26.966V10.2409Z" fill="white"/>
</g>
<g opacity="0.25">
<path d="M42.9704 10.2409H42.4722V490.35H42.9704V10.2409Z" fill="white"/>
</g>
<g opacity="0.35">
<path d="M58.9797 10.2409H58.4814V490.35H58.9797V10.2409Z" fill="white"/>
</g>
<g opacity="0.46">
<path d="M74.9841 10.2409H74.4858V490.35H74.9841V10.2409Z" fill="white"/>
</g>
<g opacity="0.57">
<path d="M90.9934 10.2409H90.4951V490.35H90.9934V10.2409Z" fill="white"/>
</g>
<g opacity="0.68">
<path d="M106.998 10.2409H106.5V490.35H106.998V10.2409Z" fill="white"/>
</g>
<g opacity="0.79">
<path d="M123.007 10.2409H122.509V490.35H123.007V10.2409Z" fill="white"/>
</g>
<g opacity="0.89">
<path d="M139.011 10.2409H138.513V490.35H139.011V10.2409Z" fill="white"/>
</g>
<path d="M155.021 10.2409H154.522V490.35H155.021V10.2409Z" fill="white"/>
<g opacity="0.14">
<path d="M298.522 10.2409H298.023V490.35H298.522V10.2409Z" fill="white"/>
</g>
<g opacity="0.25">
<path d="M282.512 10.2409H282.014V490.35H282.512V10.2409Z" fill="white"/>
</g>
<g opacity="0.35">
<path d="M266.508 10.2409H266.01V490.35H266.508V10.2409Z" fill="white"/>
</g>
<g opacity="0.46">
<path d="M250.499 10.2409H250V490.35H250.499V10.2409Z" fill="white"/>
</g>
<g opacity="0.57">
<path d="M234.494 10.2409H233.996V490.35H234.494V10.2409Z" fill="white"/>
</g>
<g opacity="0.68">
<path d="M218.485 10.2409H217.987V490.35H218.485V10.2409Z" fill="white"/>
</g>
<g opacity="0.79">
<path d="M202.481 10.2409H201.982V490.35H202.481V10.2409Z" fill="white"/>
</g>
<g opacity="0.89">
<path d="M186.471 10.2409H185.973V490.35H186.471V10.2409Z" fill="white"/>
</g>
<path d="M170.467 10.2409H169.969V490.35H170.467V10.2409Z" fill="white"/>
<g opacity="0.14">
<path d="M314.043 137.827H2.83008V138.225H314.043V137.827Z" fill="white"/>
</g>
<g opacity="0.25">
<path d="M314.043 121.83H2.83008V122.229H314.043V121.83Z" fill="white"/>
</g>
<g opacity="0.35">
<path d="M314.043 105.838H2.83008V106.237H314.043V105.838Z" fill="white"/>
</g>
<g opacity="0.46">
<path d="M314.043 89.8416H2.83008V90.2399H314.043V89.8416Z" fill="white"/>
</g>
<g opacity="0.57">
<path d="M314.043 73.8497H2.83008V74.248H314.043V73.8497Z" fill="white"/>
</g>
<g opacity="0.68">
<path d="M314.043 57.853H2.83008V58.2513H314.043V57.853Z" fill="white"/>
</g>
<g opacity="0.79">
<path d="M314.043 41.8611H2.83008V42.2594H314.043V41.8611Z" fill="white"/>
</g>
<g opacity="0.89">
<path d="M314.043 25.8643H2.83008V26.2626H314.043V25.8643Z" fill="white"/>
</g>
<path d="M314.043 9.87244H2.83008V10.2707H314.043V9.87244Z" fill="white"/>
<path d="M1899 0.0343628H3.09424V315.191H1899V0.0343628Z" fill="url(#paint0_linear_2035_5)"/>
<defs>
<linearGradient id="paint0_linear_2035_5" x1="951.047" y1="317.417" x2="951.047" y2="7.72161" gradientUnits="userSpaceOnUse">
<stop stop-opacity="0"/>
<stop offset="1"/>
</linearGradient>
</defs>
</svg>
