<svg width="360" height="360" viewBox="0 0 360 360" fill="none" xmlns="http://www.w3.org/2000/svg">
<mask id="mask0_68_147" style="mask-type:luminance" maskUnits="userSpaceOnUse" x="0" y="0" width="360" height="360">
<path d="M26.2586 86.3673C29.2073 81.3733 33.4714 74.8688 37.1789 70.4024C39.9397 67.0851 43.5244 62.5826 46.3719 59.3376C50.1734 55.0085 55.7167 49.6531 59.9807 45.7794C64.2448 41.9056 70.6408 36.7526 75.5481 33.3414C78.9593 30.9709 83.5486 27.8776 87.126 25.7673C91.3106 23.2884 96.9839 20.1012 101.393 18.0486C108.67 14.6663 118.637 10.6914 126.276 8.21243C132.751 6.10932 141.619 4.02066 148.319 2.82095C151.961 2.1705 156.84 1.4261 160.518 1.06474C165.36 0.587743 171.836 0.0673851 176.693 0.0312491C180.646 0.00234038 185.922 -0.0193412 189.868 0.269746C195.744 0.696151 203.563 1.56341 209.396 2.41622C212.287 2.8354 216.11 3.5798 218.95 4.26638C221.443 4.87347 224.782 5.64678 227.261 6.31891C229.74 6.99103 232.848 7.92334 235.218 8.6822C237.589 9.44105 240.465 10.395 242.662 11.2623C244.715 12.0645 247.461 13.1052 249.492 13.958C251.523 14.8109 254.161 15.9672 256.134 16.8923C258.483 17.998 262.855 20.0578 268.601 23.3028C272.251 25.3626 276.977 28.3618 280.49 30.6456C285.556 33.9412 294.322 40.7203 298.276 44.3123C300.169 46.0323 302.72 48.2944 304.563 50.0651C306.406 51.8358 308.748 54.2569 310.533 56.0637C312.607 58.1596 315.223 61.1082 317.11 63.3776C320.658 67.6633 325.161 73.5607 328.377 78.0994C330.617 81.2577 333.335 85.6518 335.286 88.9908C337.686 93.0958 340.598 98.733 342.68 103.004C344.176 106.076 345.903 110.289 347.218 113.448C349.719 119.475 352.378 127.794 354.026 134.11C356.599 143.997 361.058 163.626 359.772 189.116C358.999 204.525 356.245 219.76 351.598 234.395C349.003 242.569 344.667 253.207 340.808 260.861C336.948 268.514 330.798 278.481 325.79 285.563C323.289 289.097 319.726 293.658 316.871 296.917C313.077 301.246 307.678 306.717 303.653 310.837C299.627 314.956 293.246 319.993 288.541 323.622C281.978 328.681 272.504 334.462 265.276 338.51C259.798 341.581 252.13 345 246.29 347.312C239.764 349.892 230.846 352.783 224.038 354.474C220.359 355.385 215.423 356.512 211.687 357.134C206.599 357.98 199.784 359.013 194.638 359.353C191.241 359.577 186.717 359.873 183.313 359.924C179.359 359.974 174.084 359.96 170.138 359.685C167.153 359.483 163.156 359.273 160.193 358.861C157.23 358.449 153.479 357.98 150.61 357.539C147.741 357.098 143.91 356.317 141.055 355.689C138.439 355.11 134.956 354.301 132.383 353.542C130.099 352.87 127.049 352.003 124.787 351.28C122.525 350.557 119.547 349.545 117.343 348.7C113.26 347.139 107.861 344.92 103.893 343.084C96.9984 339.883 91.4551 336.688 91.4045 336.659C87.7765 334.564 83.0355 331.586 79.5086 329.317C77.6873 328.139 75.3457 326.455 73.604 325.168C71.8622 323.882 69.3977 322.003 67.6343 320.593C65.8709 319.184 63.4931 317.132 61.7225 315.65C59.9518 314.168 57.603 311.892 55.8395 310.28C40.7492 295.891 46.6249 260.203 75.6131 212.561C120.414 138.938 203.469 64.6785 261.121 46.6828C203.469 64.6713 120.414 138.938 75.6131 212.561C46.6176 260.203 40.7492 295.891 55.8395 310.28C48.1643 302.937 42.1729 296.028 37.1211 289.437C34.924 286.568 32.0404 282.687 30.1107 279.622C26.8151 274.39 22.5583 267.314 19.7036 261.822C17.3836 257.348 14.7024 251.169 12.7727 246.507C11.4429 243.291 9.91795 238.897 8.83387 235.587C6.72353 229.126 4.65656 220.28 3.19667 213.638C2.37999 209.916 1.75123 204.864 1.25255 201.085C0.587649 196.062 0.168472 189.311 0.0456095 184.252C-0.0555712 180.234 0.0167007 174.864 0.211835 170.846C0.565967 163.843 1.51996 152.597 4.66379 139.119C6.58622 130.865 10.0191 120.039 13.228 112.197C16.4369 104.356 21.8356 93.8402 26.2514 86.3673H26.2586Z" fill="white"/>
</mask>
<g mask="url(#mask0_68_147)">
<path d="M61.5922 44.3558C17.8533 88.7163 80.5564 156.392 100.814 176.079C100.908 175.956 101.002 175.833 101.103 175.71C46.6536 122.077 32.0908 71.2481 63.0955 43.0549L61.5922 44.3558Z" fill="white"/>
<path d="M100.814 176.079C196.257 265.551 336.327 291.331 354.843 222.831L355.414 220.432C334.354 289.892 198.88 266.072 101.104 175.71C101.01 175.833 100.908 175.956 100.814 176.086" fill="white"/>
<path d="M110.426 13.98C60.66 38.3211 85.2758 94.7221 131.754 139.82C131.862 139.704 131.971 139.589 132.079 139.473C68.6244 76.8999 74.1821 28.5572 112.472 13.1416L110.426 13.98Z" fill="white"/>
<path d="M131.754 139.82C226.43 228.642 362.641 244.708 359.483 166.683C359.469 166.365 359.425 165.953 359.403 165.635L359.179 163.084C362.287 242.46 228.57 228.562 132.079 139.473C131.971 139.588 131.863 139.704 131.754 139.82Z" fill="white"/>
<path d="M171.048 0.226597C107.723 5.76263 117.14 59.8365 165.671 106.871C165.787 106.77 165.902 106.669 166.018 106.568C106.451 47.7598 121.014 1.85994 173.838 0.110962L171.048 0.226597Z" fill="white"/>
<path d="M165.664 106.871C241.81 178.449 353.911 191.841 350.196 128.921C349.639 119.519 346.712 112.45 343.887 105.621L342.615 102.874C368.936 164.053 311.068 181.325 243.718 155.373C215.496 144.496 189.355 128.076 166.011 106.567C165.895 106.669 165.78 106.77 165.664 106.871Z" fill="white"/>
<path d="M200.6 78.9885C253.575 128.928 331.615 138.302 329.063 94.4185C325.912 40.3158 212.489 -20.5227 179.229 14.0522C169.046 24.64 168.533 47.9983 200.6 78.9885C200.716 78.909 200.831 78.8223 200.947 78.7428C159.73 37.9164 169.863 6.21067 206.454 5.13382C228.417 4.4906 266.519 15.2591 301.6 47.7381C344.125 90.6459 331.484 121.614 291.771 120.639C270.328 120.111 233.679 108.822 200.947 78.7428C200.831 78.8223 200.716 78.909 200.6 78.9885Z" fill="white"/>
<path d="M236.252 57.0468C259.877 79.545 296.136 83.9825 295.045 64.2379C293.701 40.0123 240.986 11.7468 226.257 27.3575C221.653 32.2358 221.508 42.9393 236.252 57.0468C236.36 56.989 236.469 56.9384 236.577 56.8806C218.285 38.5669 222.925 24.416 239.294 23.9969C249.087 23.7439 266.057 28.5717 281.638 42.9971C300.516 62.0336 294.951 75.8736 277.36 75.534C267.798 75.346 251.385 70.3521 236.577 56.8806C236.469 56.9384 236.36 56.989 236.252 57.0468Z" fill="white"/>
<path d="M19.7035 261.822L20.2817 262.942C25.4781 272.157 31.3682 282.6 49.7614 300.56C49.7397 300.502 49.7253 300.444 49.7036 300.386C33.3412 284.356 26.4971 274.383 19.5879 261.591L19.7035 261.822Z" fill="white"/>
<path d="M49.7614 300.56C64.0062 313.843 115.406 357.387 178.817 359.953H181.166C137.543 358.594 88.398 336.327 49.7036 300.386C49.7253 300.444 49.7397 300.502 49.7614 300.56Z" fill="white"/>
<path d="M1.46945 202.769C4.86623 221.299 13.0908 244.874 48.3378 279.232C48.345 279.146 48.3595 279.066 48.3667 278.979C20.159 251.285 4.30974 225.093 1.26709 201.135L1.46945 202.769Z" fill="white"/>
<path d="M48.3379 279.225C115.276 341.733 199.039 363.877 241.362 349.17L243.472 348.389C184.296 366.725 100.533 327.344 48.374 278.972C48.3596 279.059 48.3523 279.138 48.3451 279.225" fill="white"/>
<path d="M3.34852 145.284C-0.951657 177.329 16.343 211.781 56.2227 250.613C56.266 250.504 56.3094 250.403 56.3455 250.295C-2.9825 192 2.03317 155.597 3.68097 143.629L3.34852 145.284Z" fill="white"/>
<path d="M56.2227 250.613C141.243 330.141 250.779 353.369 291.916 320.998L293.036 320.102L293.737 319.531C237.994 357.98 125.987 314.768 56.3527 250.287C56.3094 250.396 56.266 250.497 56.2227 250.605" fill="white"/>
<path d="M24.8348 88.7453C7.48232 119.815 26.1646 166.604 74.8036 213.899C74.8759 213.776 74.9554 213.646 75.0349 213.523C25.7888 165.064 7.85091 118.977 25.8249 87.0758L24.8348 88.7453Z" fill="white"/>
<path d="M74.8037 213.891C164.471 297.893 296.751 329.895 332.15 276.161L333.45 274.065C294.322 327.922 166.322 297.929 75.035 213.516C74.9555 213.638 74.8832 213.768 74.8037 213.891Z" fill="white"/>
</g>
<mask id="mask1_68_147" style="mask-type:luminance" maskUnits="userSpaceOnUse" x="0" y="0" width="360" height="360">
<path d="M55.8323 310.273C52.226 306.667 47.5066 301.759 44.0881 297.972C42.1296 295.811 39.7374 292.733 37.9089 290.456C35.907 287.963 33.428 284.479 31.614 281.849C29.8 279.218 27.6463 275.966 26.1213 273.335C24.1266 269.916 21.5176 265.327 19.7036 261.815C18.1497 258.815 16.2056 254.747 14.9047 251.632C12.9245 246.883 10.4889 240.458 8.8339 235.587C7.64141 232.082 6.25379 227.348 5.42989 223.742C3.8905 217.006 2.0042 207.958 1.2598 201.085C0.399764 193.171 -0.15673 182.54 0.0745402 174.59C0.276902 167.731 0.970712 156.811 3.67368 143.679C5.3793 135.411 8.29186 124.455 11.4935 116.642C13.1268 112.667 15.1866 107.305 17.0729 103.445C19.6241 98.2128 23.1654 91.2964 26.2587 86.3674C30.8768 78.9957 37.7065 69.5714 43.2642 62.8791C46.8923 58.5138 52.0308 52.8983 56.3093 49.1546C59.4893 46.3722 63.6666 42.5779 66.9188 39.8821C71.2696 36.283 77.4272 31.9178 82.1682 28.8534C86.9093 25.7891 93.8546 21.7347 99.116 19.169C102.751 17.3983 107.637 15.0929 111.388 13.5824C115.789 11.8045 121.701 9.5207 126.261 8.2198C133.59 6.12392 143.448 3.45708 150.993 2.36578C157.244 1.46238 165.635 0.645707 171.937 0.183167C175.276 -0.0625579 179.743 0.00248679 183.089 0.0241684C187.483 0.0603043 193.33 0.472254 197.702 0.86975C201.222 1.18775 205.898 1.83819 209.381 2.40914C221.386 4.38939 230.651 7.21523 234.85 8.55948C237.17 9.30388 240.256 10.3157 242.518 11.2046C244.57 12.0069 247.317 13.0476 249.355 13.8932C251.393 14.7387 254.103 15.9023 256.091 16.8635C261.757 19.6026 263.874 20.6289 268.579 23.2885C272.229 25.3483 276.984 28.3042 280.468 30.6313C282.26 31.831 284.602 33.4861 286.336 34.7581C288.071 36.03 290.413 37.873 292.154 39.21C293.997 40.6265 296.36 42.6285 298.102 44.1679C299.931 45.794 302.366 47.9766 304.137 49.6678C305.908 51.3589 308.329 53.8451 310.121 55.6446C312.051 57.5888 314.494 60.3062 316.257 62.4021C319.827 66.6444 324.337 72.5129 327.596 77.001C329.62 79.7835 332.019 83.6934 333.848 86.6059C335.951 89.9594 338.452 94.6137 340.266 98.1261C341.82 101.125 343.8 105.18 345.065 108.309C346.994 113.079 349.589 119.446 351.135 124.354C352.248 127.88 353.578 132.629 354.539 136.199C356.339 142.87 357.922 151.99 358.709 158.856C359.62 166.763 360.227 177.401 359.895 185.358C359.678 190.547 359.158 197.464 358.558 202.624C358.081 206.751 357.134 212.207 356.296 216.276C354.59 224.544 351.468 235.414 348.476 243.313C345.484 251.212 340.302 261.771 336.204 269.374C333.429 274.52 329.064 281.01 325.638 285.744C320.629 292.66 313.2 301.369 307.158 307.404C292.06 322.494 273.92 335.221 253.084 344.45C239.562 350.442 228.027 353.542 221.306 355.132C214.838 356.657 206.071 358.175 199.466 358.89C192.86 359.606 183.66 359.852 176.881 359.931C172.486 359.982 166.64 359.519 162.267 359.086C152.496 358.124 144.936 356.542 141.915 355.884C139.4 355.342 136.054 354.532 133.568 353.868C131.082 353.203 127.634 352.184 125.112 351.389C123.031 350.731 117.444 348.902 110.607 346.055C103.178 342.954 97.6127 340.02 97.5621 339.991C95.7047 338.994 93.1969 337.729 91.3829 336.66C87.7693 334.528 82.9993 331.608 79.4869 329.317C77.7813 328.204 72.4621 324.489 67.7644 320.716C65.6974 319.054 61.39 315.585 55.8179 310.28C64.0496 318.129 78.5113 319.632 98.8558 313.287C78.5113 319.64 64.0496 318.129 55.8179 310.28L55.8323 310.273Z" fill="white"/>
</mask>
<g mask="url(#mask1_68_147)">
<path d="M356.151 213.898C360.097 111.316 137.109 -17.0248 61.5923 44.3557L63.0955 43.0548C104.76 9.54955 213.79 30.1687 303.616 113.318C344.334 154.419 361.759 190.453 355.407 220.425L354.836 222.824C355.276 220.15 356.043 216.601 356.144 213.891" fill="white"/>
<path d="M348.483 131.696C309.261 59.1425 184.389 -12.3344 110.426 13.9798L112.472 13.1415C164.399 -4.91207 248.422 24.8784 312.26 83.9752C325.023 96.8613 354.922 127.042 359.179 163.084L359.403 165.635C358.377 158.271 356.83 147.148 348.483 131.704" fill="white"/>
<path d="M341.436 100.641C312.802 46.6902 230 -2.10785 171.048 0.226536L173.838 0.110901C219.073 0.349398 269.114 22.6886 311.126 61.3975C323.282 73.6042 333.32 84.4089 342.614 102.874L343.886 105.621C343.149 104.125 342.217 102.108 341.436 100.634" fill="white"/>
<path d="M60.2551 313.54C109.733 359.534 182.409 368.054 179.894 327.561C176.837 278.379 71.6597 221.928 40.9585 252.983C31.3102 262.74 30.5731 284.458 60.2551 313.54C60.2046 313.511 60.154 313.482 60.1034 313.453C20.1876 274.47 29.5179 243.913 64.5192 242.634C85.637 241.86 122.38 252.094 156.442 283.467C197.297 324.525 184.946 355.074 147.054 353.961C126.348 353.354 91.1514 342.376 60.1034 313.453C60.154 313.482 60.2046 313.511 60.2551 313.54Z" fill="white"/>
<path d="M79.5734 317.132C102.961 338.625 132.997 339.37 131.855 323.072C130.381 302.012 84.5602 277.476 71.3272 290.666C67.0776 294.901 66.6873 304.376 79.5662 317.132C79.4867 317.132 79.4072 317.139 79.3277 317.146C61.2525 299.678 65.372 285.954 81.1273 285.361C90.6527 285 107.225 289.618 122.582 303.826C140.918 322.357 135.216 336.009 118.087 335.388C108.779 335.048 93.0449 330.068 79.3277 317.146C79.4072 317.146 79.4867 317.139 79.5662 317.132" fill="white"/>
<path d="M183.559 359.873C242.178 356.997 242.063 303.4 183.327 251.668C112.233 189.051 9.8313 179.446 12.1368 235.616C12.556 245.843 16.7983 256.12 20.2818 262.935L19.7036 261.815L19.588 261.583C-7.96927 201.815 44.0521 182.706 108.974 205.558C153.746 221.314 182.438 247.873 191.863 256.597C251.595 316.922 234.554 358.739 181.159 359.946H178.81C180.234 359.924 182.128 359.946 183.551 359.866" fill="white"/>
<path d="M256.018 341.249C316.04 291.851 191.443 162.202 73.3871 151.217C55.2974 149.533 -3.35846 148.276 1.4693 202.761L1.26694 201.128C-3.91495 118.463 131.559 139.95 218.603 217.245C220.909 219.29 223.879 222.13 226.141 224.226C290.225 288.931 280.041 333.949 243.465 348.396L241.354 349.177C248.09 346.301 251.798 344.718 256.011 341.249" fill="white"/>
<path d="M308.712 287.89C313.879 182.496 83.2451 52.9705 14.9337 122.901C7.22949 130.793 5.34319 137.832 3.35571 145.283L3.68816 143.628C23.2305 73.2211 158.191 96.7601 257.037 187.815C337.606 268.746 305.503 309.095 293.744 319.531L293.043 320.102L291.923 320.998C297.871 315.52 307.816 306.356 308.719 287.883" fill="white"/>
<path d="M339.29 253.041C344.009 143.137 102.325 7.39594 31.4189 80.1376C29.1496 82.4648 26.5984 86.0133 24.835 88.7452L25.8251 87.0757C64.4183 33.0814 192.679 63.3489 284.775 148.189C351.453 215.163 343.894 255.802 333.451 274.065L332.15 276.161C335.286 270.198 338.849 263.448 339.29 253.041Z" fill="white"/>
</g>
</svg>
