<svg width="3" height="10" viewBox="0 0 3 10" fill="none" xmlns="http://www.w3.org/2000/svg"><path d="M1.5 1.5V1.505M1.5 5V5.005M1.5 8.5V8.505M1.5 2C1.63261 2 1.75979 1.94732 1.85355 1.85355C1.94732 1.75979 2 1.63261 2 1.5C2 1.36739 1.94732 1.24021 1.85355 1.14645C1.75979 1.05268 1.63261 1 1.5 1C1.36739 1 1.24021 1.05268 1.14645 1.14645C1.05268 1.24021 1 1.36739 1 1.5C1 1.63261 1.05268 1.75979 1.14645 1.85355C1.24021 1.94732 1.36739 2 1.5 2ZM1.5 5.5C1.63261 5.5 1.75979 5.44732 1.85355 5.35355C1.94732 5.25979 2 5.13261 2 5C2 4.86739 1.94732 4.74021 1.85355 4.64645C1.75979 4.55268 1.63261 4.5 1.5 4.5C1.36739 4.5 1.24021 4.55268 1.14645 4.64645C1.05268 4.74021 1 4.86739 1 5C1 5.13261 1.05268 5.25979 1.14645 5.35355C1.24021 5.44732 1.36739 5.5 1.5 5.5ZM1.5 9C1.63261 9 1.75979 8.94732 1.85355 8.85355C1.94732 8.75979 2 8.63261 2 8.5C2 8.36739 1.94732 8.24021 1.85355 8.14645C1.75979 8.05268 1.63261 8 1.5 8C1.36739 8 1.24021 8.05268 1.14645 8.14645C1.05268 8.24021 1 8.36739 1 8.5C1 8.63261 1.05268 8.75979 1.14645 8.85355C1.24021 8.94732 1.36739 9 1.5 9Z" stroke="white" stroke-linecap="round" stroke-linejoin="round"></path></svg>