<svg width="223" height="56" viewBox="0 0 223 56" fill="none" xmlns="http://www.w3.org/2000/svg">
<path d="M2.87152 15.1096V21.6618L8.2034 24.8457L11.0749 26.5611L19.9766 31.8754V53.8137L0 41.9868V26.627L2.87152 28.2535V40.3274L17.1051 48.7531V33.5282L11.0749 29.9262L8.2034 28.214L0 23.3147V13.4008L23.938 0.0526811L24 0.0197554L24.0326 0L24.062 0.0526811L25.4227 2.53528L24 3.32879L2.87152 15.1096Z" fill="#DC8431"/>
<path d="M30.8949 48.7531L45.1285 40.3274V28.3786L48 26.627V41.9868L28.0234 53.8137V31.8754L37.5092 26.2121L40.3807 24.4967L45.1285 21.6618V15.1096L24 3.32879L22.5773 2.53528L23.938 0.0526811L23.9673 0L24 0.0197554L24.062 0.0526811L48 13.4008V23.3147L40.3807 27.865L37.5092 29.5804L30.8949 33.5282V48.7531Z" fill="#DC8431"/>
<path d="M24.2414 9.55176L23.4681 10.0917L8.20337 19.6567V37.6077L17.1051 42.7211L19.9766 44.3707V41.0419L17.1051 39.3824L11.0749 35.8989V21.27L24.2904 12.9958L37.5091 21.27V35.9252L30.8949 39.7084L28.0234 41.3514V44.6966L30.8949 43.0438L40.3807 37.5847V19.6567L24.2414 9.55176Z" fill="#DC8431"/>
<path d="M28.0233 50.5047V53.8499L24.2904 56L19.9766 53.524V50.1952L24.2512 52.6646L28.0233 50.5047Z" fill="white"/>
<path d="M24.4242 23.9041L16.9224 19.5842L19.3762 18.231L24.4536 21.1185L29.3384 18.4088L31.6617 19.8707L24.4242 23.9041Z" fill="white"/>
<path d="M24.4405 29.5015L10.4517 21.2371L13.3917 19.6172L24.4731 26.1628L35.8613 19.739L38.648 21.4907L24.4405 29.5015Z" fill="#DC8431"/>
<path d="M204.453 15.7405C204.232 15.5084 203.956 15.4531 203.779 15.6079L202.134 17.1331C201.957 17.2989 201.99 17.5752 202.211 17.8184L210.429 26.7487L212.506 24.494L204.453 15.7516V15.7405Z" fill="white"/>
<path d="M214.583 26.7487L212.506 29.0034L220.559 37.7458C220.78 37.9779 221.056 38.0332 221.233 37.8785L222.879 36.3532C223.055 36.1875 223.022 35.9111 222.801 35.668L214.583 26.7377V26.7487Z" fill="white"/>
<path d="M202.2 35.6679C201.979 35.9 201.946 36.1874 202.123 36.3532L203.768 37.8784C203.945 38.0442 204.221 37.9889 204.442 37.7458L212.495 29.0033L210.418 26.7487L202.2 35.679V35.6679Z" fill="white"/>
<path d="M222.812 17.8184C223.033 17.5863 223.066 17.2989 222.889 17.1331L221.244 15.6079C221.067 15.4421 220.791 15.4974 220.57 15.7405L212.517 24.483L214.594 26.7376L222.812 17.8073V17.8184Z" fill="white"/>
<path d="M105.49 15.7515C105.358 15.6189 105.126 15.5194 104.927 15.5194H92.4889C92.29 15.5194 92.1575 15.652 92.1575 15.851V18.1499C92.1575 18.3488 92.29 18.4814 92.4889 18.4814H105.093C105.789 18.4814 106.241 18.9456 106.241 19.6309V37.6242C106.241 37.8563 106.407 38.0221 106.639 38.0221H108.815C109.047 38.0221 109.213 37.8563 109.213 37.6242V19.7746C109.213 19.5756 109.113 19.3435 108.981 19.222L105.49 15.7515Z" fill="white"/>
<path d="M91.8371 18.4704H89.5284C89.3296 18.4704 89.197 18.603 89.197 18.802V37.6794C89.197 37.8784 89.3296 38.011 89.5284 38.011H91.7708C92.0028 38.011 92.1685 37.8452 92.1685 37.6131V18.7909C92.1685 18.592 92.0359 18.4594 91.8371 18.4594V18.4704Z" fill="white"/>
<path d="M132.719 28.6607H130.411C130.212 28.6607 130.079 28.7934 130.079 28.9923V33.9106C130.079 34.5959 129.615 35.0601 128.93 35.0601H117.973C117.277 35.0601 116.824 34.5959 116.824 33.9106V29.8102C116.824 29.1249 117.288 28.6607 117.973 28.6607H129.405C129.604 28.6607 129.737 28.5281 129.737 28.3292V25.975C129.737 25.7761 129.604 25.6434 129.405 25.6434H117.973C117.277 25.6434 116.824 25.1792 116.824 24.494V19.6199C116.824 18.9347 117.288 18.4705 117.973 18.4705H128.776C129.472 18.4705 129.925 18.9347 129.925 19.6199V25.0356C129.925 25.2345 130.057 25.3671 130.256 25.3671H132.565C132.763 25.3671 132.896 25.2345 132.896 25.0356V19.8852C132.896 19.6199 132.763 19.3325 132.598 19.1668L129.24 15.8289C129.074 15.6631 128.776 15.5305 128.511 15.5305H114.184C113.985 15.5305 113.852 15.6631 113.852 15.8621V37.6795C113.852 37.8784 113.985 38.0111 114.184 38.0111H128.665C128.93 38.0111 129.229 37.8784 129.394 37.7126L132.752 34.3748C132.918 34.209 133.051 33.9106 133.051 33.6564V29.0034C133.051 28.8044 132.918 28.6718 132.719 28.6718V28.6607Z" fill="white"/>
<path d="M84.867 28.6607H82.5583C82.3595 28.6607 82.2269 28.7934 82.2269 28.9923V33.9106C82.2269 34.5959 81.763 35.0601 81.0781 35.0601H70.1202C69.4243 35.0601 68.9714 34.5959 68.9714 33.9106V29.8102C68.9714 29.1249 69.4354 28.6607 70.1202 28.6607H81.5531C81.7519 28.6607 81.8845 28.5281 81.8845 28.3292V25.975C81.8845 25.7761 81.7519 25.6434 81.5531 25.6434H70.1202C69.4243 25.6434 68.9714 25.1792 68.9714 24.494V19.6199C68.9714 18.9347 69.4354 18.4705 70.1202 18.4705H80.9235C81.6194 18.4705 82.0723 18.9347 82.0723 19.6199V25.0356C82.0723 25.2345 82.2048 25.3671 82.4036 25.3671H84.7123C84.9111 25.3671 85.0437 25.2345 85.0437 25.0356V19.8852C85.0437 19.6199 84.9111 19.3325 84.7454 19.1668L81.3874 15.8289C81.2217 15.6631 80.9235 15.5305 80.6583 15.5305H66.3314C66.1326 15.5305 66 15.6631 66 15.8621V37.6795C66 37.8784 66.1326 38.0111 66.3314 38.0111H80.813C81.0781 38.0111 81.3763 37.8784 81.542 37.7126L84.9001 34.3748C85.0658 34.209 85.1983 33.9106 85.1983 33.6564V29.0034C85.1983 28.8044 85.0658 28.6718 84.867 28.6718V28.6607Z" fill="white"/>
<path d="M141.368 17.9399H143.544C143.765 17.9399 143.942 18.1168 143.942 18.3378V37.6132C143.942 37.8342 143.765 38.0111 143.544 38.0111H141.368C141.147 38.0111 140.971 37.8342 140.971 37.6132V18.3378C140.971 18.1168 141.147 17.9399 141.368 17.9399Z" fill="white"/>
<path d="M172.806 17.9399H174.982C175.203 17.9399 175.38 18.1167 175.38 18.3378V37.6021C175.38 37.8231 175.203 38 174.982 38H172.806C172.585 38 172.408 37.8231 172.408 37.6021V18.3267C172.408 18.1057 172.585 17.9288 172.806 17.9288V17.9399Z" fill="white"/>
<path d="M144.329 15.0553H156.292C156.513 15.0553 156.69 15.2321 156.69 15.4532V17.6084C156.69 17.8294 156.513 18.0063 156.292 18.0063H144.329C144.108 18.0063 143.931 17.8294 143.931 17.6084V15.4532C143.931 15.2321 144.108 15.0553 144.329 15.0553Z" fill="white"/>
<path d="M157.087 17.9399H159.263C159.484 17.9399 159.661 18.1168 159.661 18.3378V37.6132C159.661 37.8342 159.484 38.0111 159.263 38.0111H157.087C156.866 38.0111 156.689 37.8342 156.689 37.6132V18.3378C156.689 18.1168 156.866 17.9399 157.087 17.9399Z" fill="white"/>
<path d="M160.048 15.0553H172.011C172.232 15.0553 172.408 15.2321 172.408 15.4532V17.6084C172.408 17.8294 172.232 18.0063 172.011 18.0063H160.037C159.816 18.0063 159.639 17.8294 159.639 17.6084V15.4532C159.639 15.2321 159.816 15.0553 160.037 15.0553H160.048Z" fill="white"/>
<path d="M194.225 26.5276H183.311C183.079 26.5276 182.913 26.6934 182.913 26.9255V29.1028C182.913 29.3349 183.079 29.5007 183.311 29.5007H194.225C194.457 29.5007 194.622 29.3349 194.622 29.1028V26.9255C194.622 26.6934 194.457 26.5276 194.225 26.5276Z" fill="white"/>
<path d="M194.545 15.2321C194.412 15.0995 194.18 15 193.982 15H182.449C182.25 15 182.118 15.1326 182.118 15.3316V17.6305C182.118 17.8294 182.25 17.962 182.449 17.962H194.136C194.832 17.962 195.285 18.4262 195.285 19.1115V37.6242C195.285 37.8563 195.451 38.0221 195.683 38.0221H197.859C198.091 38.0221 198.256 37.8563 198.256 37.6242V19.2552C198.256 19.0562 198.157 18.8241 198.024 18.7025L194.534 15.2321H194.545Z" fill="white"/>
<path d="M181.798 17.9509H179.489C179.29 17.9509 179.157 18.0836 179.157 18.2825V37.6794C179.157 37.8784 179.29 38.011 179.489 38.011H181.731C181.963 38.011 182.129 37.8452 182.129 37.6131V18.2825C182.129 18.0836 181.996 17.9509 181.798 17.9509Z" fill="white"/>
</svg>
