<svg width="24" height="26" viewBox="0 0 24 26" fill="none" xmlns="http://www.w3.org/2000/svg"><path d="M6.47307 6.21527V16.8093C6.47307 17.5117 6.7556 18.1853 7.2585 18.682C7.76139 19.1787 8.44347 19.4578 9.15468 19.4578H17.1995M6.47307 6.21527V3.56677C6.47307 2.86435 6.7556 2.19069 7.2585 1.694C7.76139 1.19731 8.44347 0.918274 9.15468 0.918274H15.3036C15.6592 0.918349 16.0002 1.05792 16.2515 1.30628L22.1698 7.15151C22.4213 7.3998 22.5626 7.73657 22.5627 8.08776V16.8093C22.5627 17.5117 22.2802 18.1853 21.7773 18.682C21.2744 19.1787 20.5923 19.4578 19.8811 19.4578H17.1995M6.47307 6.21527H3.79147C3.08026 6.21527 2.39819 6.49431 1.89529 6.991C1.39239 7.48769 1.10986 8.16134 1.10986 8.86377V22.1063C1.10986 22.8087 1.39239 23.4823 1.89529 23.979C2.39819 24.4757 3.08026 24.7548 3.79147 24.7548H14.5179C15.2291 24.7548 15.9112 24.4757 16.4141 23.979C16.917 23.4823 17.1995 22.8087 17.1995 22.1063V19.4578" stroke="white" stroke-width="1.5" stroke-linecap="round" stroke-linejoin="round"></path></svg>