<svg class="w-5 lg:w-auto" width="33" height="37" viewBox="0 0 33 37" fill="#c5772f" xmlns="http://www.w3.org/2000/svg"><path d="M15.0649 22.9999V15.0639L13.3689 15.3359V13.1759L17.6409 12.5359V22.9999H15.0649Z" fill="white"></path><path fill-rule="evenodd" clip-rule="evenodd" d="M15.1272 0.820583C15.4314 0.646257 15.7758 0.554565 16.1262 0.554565C16.4766 0.554565 16.8209 0.646257 17.1251 0.820583L20.6497 2.8408C20.886 2.96885 21.0943 3.14298 21.2624 3.35296C21.4305 3.56294 21.5551 3.80451 21.6288 4.06349C21.7025 4.32247 21.7239 4.59361 21.6916 4.86098C21.6593 5.12835 21.5741 5.38654 21.4408 5.62038C21.3076 5.85422 21.1291 6.05898 20.9159 6.22262C20.7026 6.38626 20.4589 6.50547 20.1991 6.57326C19.9392 6.64104 19.6684 6.65602 19.4027 6.61732C19.137 6.57862 18.8817 6.48702 18.6518 6.3479L16.1262 4.90142L13.6005 6.3479C13.3706 6.48702 13.1153 6.57862 12.8496 6.61732C12.5839 6.65602 12.3131 6.64104 12.0533 6.57326C11.7934 6.50547 11.5497 6.38626 11.3364 6.22262C11.1232 6.05898 10.9447 5.85422 10.8115 5.62038C10.6783 5.38654 10.593 5.12835 10.5607 4.86098C10.5284 4.59361 10.5498 4.32247 10.6235 4.06349C10.6972 3.80451 10.8218 3.56294 10.9899 3.35296C11.1581 3.14298 11.3664 2.96885 11.6026 2.8408L15.1272 0.820583ZM7.30055 7.63276C7.56534 8.09787 7.63516 8.64941 7.49467 9.16613C7.35417 9.68286 7.01486 10.1225 6.55132 10.3883L6.08809 10.655L6.55132 10.9217C6.78753 11.0497 6.99583 11.2239 7.16397 11.4338C7.33212 11.6438 7.45671 11.8854 7.53041 12.1444C7.60412 12.4033 7.62546 12.6745 7.59318 12.9419C7.56089 13.2092 7.47564 13.4674 7.34242 13.7013C7.20921 13.9351 7.03072 14.1399 6.81747 14.3035C6.60421 14.4671 6.36049 14.5863 6.10063 14.6541C5.84077 14.7219 5.57003 14.7369 5.30431 14.6982C5.0386 14.6595 4.78328 14.5679 4.55337 14.4288L4.0418 14.1358V14.6954C4.0418 15.2312 3.82961 15.7451 3.4519 16.124C3.07419 16.5028 2.5619 16.7157 2.02774 16.7157C1.49358 16.7157 0.981295 16.5028 0.603586 16.124C0.225876 15.7451 0.0136816 15.2312 0.0136816 14.6954V10.655C0.0125544 10.2921 0.1093 9.93564 0.293672 9.62338C0.478044 9.31112 0.743178 9.05469 1.06099 8.88126L4.55337 6.88124C5.01706 6.61564 5.56692 6.5456 6.08207 6.68653C6.59722 6.82745 7.0355 7.1678 7.30055 7.63276ZM24.9518 7.63276C25.2168 7.1678 25.6551 6.82745 26.1702 6.68653C26.6854 6.5456 27.2353 6.61564 27.6989 6.88124L31.1893 8.88126C31.5067 9.05544 31.7715 9.31198 31.9561 9.62403C32.1407 9.93607 32.2383 10.2922 32.2386 10.655V14.6954C32.2386 15.2312 32.0264 15.7451 31.6487 16.124C31.271 16.5028 30.7587 16.7157 30.2246 16.7157C29.6904 16.7157 29.1781 16.5028 28.8004 16.124C28.4227 15.7451 28.2105 15.2312 28.2105 14.6954V14.1358L27.6989 14.4288C27.469 14.5679 27.2137 14.6595 26.948 14.6982C26.6823 14.7369 26.4115 14.7219 26.1517 14.6541C25.8918 14.5863 25.6481 14.4671 25.4348 14.3035C25.2216 14.1399 25.0431 13.9351 24.9099 13.7013C24.7767 13.4674 24.6914 13.2092 24.6591 12.9419C24.6269 12.6745 24.6482 12.4033 24.7219 12.1444C24.7956 11.8854 24.9202 11.6438 25.0883 11.4338C25.2565 11.2239 25.4648 11.0497 25.701 10.9217L26.1642 10.655L25.701 10.3883C25.2375 10.1225 24.8981 9.68286 24.7577 9.16613C24.6172 8.64941 24.687 8.09787 24.9518 7.63276ZM2.02774 20.7561C2.5619 20.7561 3.07419 20.9689 3.4519 21.3478C3.82961 21.7267 4.0418 22.2405 4.0418 22.7763V25.645L6.55132 27.0834C6.78753 27.2115 6.99583 27.3856 7.16397 27.5956C7.33212 27.8056 7.45671 28.0471 7.53041 28.3061C7.60412 28.5651 7.62546 28.8362 7.59318 29.1036C7.56089 29.371 7.47564 29.6292 7.34242 29.863C7.20921 30.0968 7.03072 30.3016 6.81747 30.4652C6.60421 30.6289 6.36049 30.7481 6.10063 30.8159C5.84077 30.8837 5.57003 30.8986 5.30431 30.8599C5.0386 30.8212 4.78328 30.7296 4.55337 30.5905L1.02877 28.5703C0.720507 28.3937 0.464266 28.1385 0.286005 27.8305C0.107743 27.5226 0.0137961 27.1728 0.0136816 26.8168V22.7763C0.0136816 22.2405 0.225876 21.7267 0.603586 21.3478C0.981295 20.9689 1.49358 20.7561 2.02774 20.7561ZM30.2246 20.7561C30.7587 20.7561 31.271 20.9689 31.6487 21.3478C32.0264 21.7267 32.2386 22.2405 32.2386 22.7763V26.8168C32.2385 27.1728 32.1446 27.5226 31.9663 27.8305C31.7881 28.1385 31.5318 28.3937 31.2236 28.5703L27.6989 30.5905C27.469 30.7296 27.2137 30.8212 26.948 30.8599C26.6823 30.8986 26.4115 30.8837 26.1517 30.8159C25.8918 30.7481 25.6481 30.6289 25.4348 30.4652C25.2216 30.3016 25.0431 30.0968 24.9099 29.863C24.7767 29.6292 24.6914 29.371 24.6591 29.1036C24.6269 28.8362 24.6482 28.5651 24.7219 28.3061C24.7956 28.0471 24.9202 27.8056 25.0883 27.5956C25.2565 27.3856 25.4648 27.2115 25.701 27.0834L28.2105 25.645V22.7763C28.2105 22.2405 28.4227 21.7267 28.8004 21.3478C29.1781 20.9689 29.6904 20.7561 30.2246 20.7561ZM10.8534 31.8754C11.1184 31.4104 11.5567 31.0701 12.0718 30.9291C12.587 30.7882 13.1368 30.8583 13.6005 31.1239L14.1121 31.4168V30.8572C14.1121 30.3214 14.3243 29.8075 14.702 29.4287C15.0797 29.0498 15.592 28.837 16.1262 28.837C16.6603 28.837 17.1726 29.0498 17.5503 29.4287C17.928 29.8075 18.1402 30.3214 18.1402 30.8572V31.4168L18.6518 31.1239C18.8817 30.9847 19.137 30.8931 19.4027 30.8544C19.6684 30.8157 19.9392 30.8307 20.1991 30.8985C20.4589 30.9663 20.7026 31.0855 20.9159 31.2491C21.1291 31.4128 21.3076 31.6175 21.4408 31.8514C21.5741 32.0852 21.6593 32.3434 21.6916 32.6108C21.7239 32.8782 21.7025 33.1493 21.6288 33.4083C21.5551 33.6672 21.4305 33.9088 21.2624 34.1188C21.0943 34.3288 20.886 34.5029 20.6497 34.631L17.1553 36.635C16.8443 36.8217 16.4886 36.9204 16.1262 36.9204C15.7637 36.9204 15.408 36.8217 15.097 36.635L11.6026 34.631C11.139 34.3651 10.7997 33.9255 10.6592 33.4088C10.5187 32.892 10.5886 32.3405 10.8534 31.8754Z" fill="white"></path></svg>