<svg class="w-5 lg:w-auto" width="58" height="62" viewBox="0 0 58 62" fill="none" xmlns="http://www.w3.org/2000/svg"><path d="M26.8441 35.1599C26.5455 35.1599 26.1935 35.1385 25.7881 35.0959C25.3828 35.0532 24.9828 34.9945 24.5881 34.9199C24.2041 34.8345 23.8841 34.7385 23.6281 34.6319V32.4879C24.0655 32.6905 24.5348 32.8345 25.0361 32.9199C25.5375 33.0052 26.0068 33.0479 26.4441 33.0479C27.1161 33.0479 27.6175 32.9572 27.9481 32.7759C28.2895 32.5945 28.4601 32.2639 28.4601 31.7839C28.4601 31.4105 28.3161 31.1385 28.0281 30.9679C27.7508 30.7972 27.3455 30.7119 26.8121 30.7119H25.1321L25.3081 28.9039H26.7001C27.2441 28.9039 27.6388 28.8185 27.8841 28.6479C28.1295 28.4665 28.2521 28.1785 28.2521 27.7839C28.2521 27.4105 28.1028 27.1279 27.8041 26.9359C27.5161 26.7439 27.0468 26.6479 26.3961 26.6479C25.9375 26.6479 25.4735 26.7012 25.0041 26.8079C24.5348 26.9039 24.1295 27.0319 23.7881 27.1919V25.0799C24.1615 24.9305 24.6255 24.8025 25.1801 24.6959C25.7455 24.5892 26.3108 24.5359 26.8761 24.5359C28.1775 24.5359 29.1695 24.8132 29.8521 25.3679C30.5455 25.9119 30.8921 26.6105 30.8921 27.4639C30.8921 27.9545 30.7855 28.4132 30.5721 28.8399C30.3695 29.2665 30.0548 29.5865 29.6281 29.7999C30.1188 29.9705 30.4815 30.2479 30.7161 30.6319C30.9615 31.0159 31.0841 31.4799 31.0841 32.0239C31.0841 32.7385 30.9028 33.3305 30.5401 33.7999C30.1775 34.2585 29.6761 34.5999 29.0361 34.8239C28.4068 35.0479 27.6761 35.1599 26.8441 35.1599Z" fill="white"></path><path fill-rule="evenodd" clip-rule="evenodd" d="M26.8318 12.8206C27.136 12.6463 27.4804 12.5546 27.8307 12.5546C28.1811 12.5546 28.5255 12.6463 28.8297 12.8206L32.3543 14.8408C32.5905 14.9689 32.7988 15.143 32.967 15.353C33.1351 15.5629 33.2597 15.8045 33.3334 16.0635C33.4071 16.3225 33.4285 16.5936 33.3962 16.861C33.3639 17.1283 33.2786 17.3865 33.1454 17.6204C33.0122 17.8542 32.8337 18.059 32.6205 18.2226C32.4072 18.3863 32.1635 18.5055 31.9036 18.5733C31.6438 18.641 31.373 18.656 31.1073 18.6173C30.8416 18.5786 30.5863 18.487 30.3564 18.3479L27.8307 16.9014L25.3051 18.3479C25.0752 18.487 24.8199 18.5786 24.5542 18.6173C24.2885 18.656 24.0177 18.641 23.7579 18.5733C23.498 18.5055 23.2543 18.3863 23.041 18.2226C22.8278 18.059 22.6493 17.8542 22.5161 17.6204C22.3829 17.3865 22.2976 17.1283 22.2653 16.861C22.233 16.5936 22.2544 16.3225 22.3281 16.0635C22.4018 15.8045 22.5264 15.5629 22.6945 15.353C22.8627 15.143 23.071 14.9689 23.3072 14.8408L26.8318 12.8206ZM19.0051 19.6328C19.2699 20.0979 19.3398 20.6494 19.1993 21.1661C19.0588 21.6829 18.7194 22.1225 18.2559 22.3883L17.7927 22.655L18.2559 22.9217C18.4921 23.0497 18.7004 23.2239 18.8686 23.4338C19.0367 23.6438 19.1613 23.8854 19.235 24.1444C19.3087 24.4033 19.33 24.6745 19.2978 24.9419C19.2655 25.2092 19.1802 25.4674 19.047 25.7013C18.9138 25.9351 18.7353 26.1399 18.5221 26.3035C18.3088 26.4671 18.0651 26.5863 17.8052 26.6541C17.5454 26.7219 17.2746 26.7369 17.0089 26.6982C16.7432 26.6595 16.4879 26.5679 16.258 26.4288L15.7464 26.1358V26.6954C15.7464 27.2312 15.5342 27.7451 15.1565 28.124C14.7788 28.5028 14.2665 28.7157 13.7323 28.7157C13.1982 28.7157 12.6859 28.5028 12.3082 28.124C11.9305 27.7451 11.7183 27.2312 11.7183 26.6954V22.655C11.7171 22.2921 11.8139 21.9356 11.9983 21.6234C12.1826 21.3111 12.4478 21.0547 12.7656 20.8813L16.258 18.8812C16.7216 18.6156 17.2715 18.5456 17.7867 18.6865C18.3018 18.8275 18.7401 19.1678 19.0051 19.6328ZM36.6564 19.6328C36.9214 19.1678 37.3597 18.8275 37.8748 18.6865C38.39 18.5456 38.9398 18.6156 39.4035 18.8812L42.8939 20.8813C43.2112 21.0554 43.4761 21.312 43.6607 21.624C43.8453 21.9361 43.9429 22.2922 43.9432 22.655V26.6954C43.9432 27.2312 43.731 27.7451 43.3533 28.124C42.9756 28.5028 42.4633 28.7157 41.9292 28.7157C41.395 28.7157 40.8827 28.5028 40.505 28.124C40.1273 27.7451 39.9151 27.2312 39.9151 26.6954V26.1358L39.4035 26.4288C39.1736 26.5679 38.9183 26.6595 38.6526 26.6982C38.3869 26.7369 38.1161 26.7219 37.8563 26.6541C37.5964 26.5863 37.3527 26.4671 37.1394 26.3035C36.9262 26.1399 36.7477 25.9351 36.6145 25.7013C36.4813 25.4674 36.396 25.2092 36.3637 24.9419C36.3314 24.6745 36.3528 24.4033 36.4265 24.1444C36.5002 23.8854 36.6248 23.6438 36.7929 23.4338C36.9611 23.2239 37.1694 23.0497 37.4056 22.9217L37.8688 22.655L37.4056 22.3883C36.9421 22.1225 36.6027 21.6829 36.4622 21.1661C36.3217 20.6494 36.3916 20.0979 36.6564 19.6328ZM13.7323 32.7561C14.2665 32.7561 14.7788 32.9689 15.1565 33.3478C15.5342 33.7267 15.7464 34.2405 15.7464 34.7763V37.645L18.2559 39.0834C18.4921 39.2115 18.7004 39.3856 18.8686 39.5956C19.0367 39.8056 19.1613 40.0471 19.235 40.3061C19.3087 40.5651 19.33 40.8362 19.2978 41.1036C19.2655 41.371 19.1802 41.6292 19.047 41.863C18.9138 42.0968 18.7353 42.3016 18.5221 42.4652C18.3088 42.6289 18.0651 42.7481 17.8052 42.8159C17.5454 42.8837 17.2746 42.8986 17.0089 42.8599C16.7432 42.8212 16.4879 42.7296 16.258 42.5905L12.7334 40.5703C12.4251 40.3937 12.1689 40.1385 11.9906 39.8305C11.8123 39.5226 11.7184 39.1728 11.7183 38.8168V34.7763C11.7183 34.2405 11.9305 33.7267 12.3082 33.3478C12.6859 32.9689 13.1982 32.7561 13.7323 32.7561ZM41.9292 32.7561C42.4633 32.7561 42.9756 32.9689 43.3533 33.3478C43.731 33.7267 43.9432 34.2405 43.9432 34.7763V38.8168C43.9431 39.1728 43.8492 39.5226 43.6709 39.8305C43.4926 40.1385 43.2364 40.3937 42.9281 40.5703L39.4035 42.5905C39.1736 42.7296 38.9183 42.8212 38.6526 42.8599C38.3869 42.8986 38.1161 42.8837 37.8563 42.8159C37.5964 42.7481 37.3527 42.6289 37.1394 42.4652C36.9262 42.3016 36.7477 42.0968 36.6145 41.863C36.4813 41.6292 36.396 41.371 36.3637 41.1036C36.3314 40.8362 36.3528 40.5651 36.4265 40.3061C36.5002 40.0471 36.6248 39.8056 36.7929 39.5956C36.9611 39.3856 37.1694 39.2115 37.4056 39.0834L39.9151 37.645V34.7763C39.9151 34.2405 40.1273 33.7267 40.505 33.3478C40.8827 32.9689 41.395 32.7561 41.9292 32.7561ZM22.5579 43.8754C22.823 43.4104 23.2613 43.0701 23.7764 42.9291C24.2916 42.7882 24.8414 42.8583 25.3051 43.1239L25.8167 43.4168V42.8572C25.8167 42.3214 26.0289 41.8075 26.4066 41.4287C26.7843 41.0498 27.2966 40.837 27.8307 40.837C28.3649 40.837 28.8772 41.0498 29.2549 41.4287C29.6326 41.8075 29.8448 42.3214 29.8448 42.8572V43.4168L30.3564 43.1239C30.5863 42.9847 30.8416 42.8931 31.1073 42.8544C31.373 42.8157 31.6438 42.8307 31.9036 42.8985C32.1635 42.9663 32.4072 43.0855 32.6205 43.2491C32.8337 43.4128 33.0122 43.6175 33.1454 43.8514C33.2786 44.0852 33.3639 44.3434 33.3962 44.6108C33.4285 44.8782 33.4071 45.1493 33.3334 45.4083C33.2597 45.6672 33.1351 45.9088 32.967 46.1188C32.7988 46.3288 32.5905 46.5029 32.3543 46.631L28.8599 48.635C28.5489 48.8217 28.1932 48.9204 27.8307 48.9204C27.4683 48.9204 27.1126 48.8217 26.8016 48.635L23.3072 46.631C22.8436 46.3651 22.5043 45.9255 22.3638 45.4088C22.2233 44.892 22.2931 44.3405 22.5579 43.8754Z" fill="white"></path></svg>