<svg class="w-5 lg:w-auto" width="33" height="37" viewBox="0 0 33 37" fill="none" xmlns="http://www.w3.org/2000/svg">
<path d="M12.7297 22.9999V21.7999C13.0177 21.2025 13.3857 20.6692 13.8337 20.1999C14.2924 19.7305 14.7884 19.2559 15.3217 18.7759C15.8124 18.3279 16.2017 17.9705 16.4897 17.7039C16.7777 17.4372 16.9804 17.1812 17.0977 16.9359C17.2257 16.6905 17.2897 16.3972 17.2897 16.0559C17.2897 15.1812 16.7244 14.7439 15.5937 14.7439C15.1564 14.7439 14.7244 14.7972 14.2977 14.9039C13.871 14.9999 13.4657 15.1225 13.0817 15.2719V13.0479C13.4977 12.8985 13.983 12.7759 14.5377 12.6799C15.103 12.5839 15.663 12.5359 16.2177 12.5359C17.423 12.5359 18.3404 12.8399 18.9697 13.4479C19.599 14.0559 19.9137 14.9092 19.9137 16.0079C19.9137 16.6265 19.7697 17.1652 19.4817 17.6239C19.1937 18.0719 18.7617 18.5465 18.1857 19.0479C17.759 19.4105 17.375 19.7465 17.0337 20.0559C16.703 20.3545 16.4204 20.6745 16.1857 21.0159H20.0097V22.9999H12.7297Z" fill="white"></path>
<path fill-rule="evenodd" clip-rule="evenodd" d="M15.8318 0.820583C16.136 0.646257 16.4804 0.554565 16.8307 0.554565C17.1811 0.554565 17.5255 0.646257 17.8297 0.820583L21.3543 2.8408C21.5905 2.96885 21.7988 3.14298 21.967 3.35296C22.1351 3.56294 22.2597 3.80451 22.3334 4.06349C22.4071 4.32247 22.4285 4.59361 22.3962 4.86098C22.3639 5.12835 22.2786 5.38654 22.1454 5.62038C22.0122 5.85422 21.8337 6.05898 21.6205 6.22262C21.4072 6.38626 21.1635 6.50547 20.9036 6.57326C20.6438 6.64104 20.373 6.65602 20.1073 6.61732C19.8416 6.57862 19.5863 6.48702 19.3564 6.3479L16.8307 4.90142L14.3051 6.3479C14.0752 6.48702 13.8199 6.57862 13.5542 6.61732C13.2885 6.65602 13.0177 6.64104 12.7579 6.57326C12.498 6.50547 12.2543 6.38626 12.041 6.22262C11.8278 6.05898 11.6493 5.85422 11.5161 5.62038C11.3829 5.38654 11.2976 5.12835 11.2653 4.86098C11.233 4.59361 11.2544 4.32247 11.3281 4.06349C11.4018 3.80451 11.5264 3.56294 11.6945 3.35296C11.8627 3.14298 12.071 2.96885 12.3072 2.8408L15.8318 0.820583ZM8.00514 7.63276C8.26993 8.09787 8.33975 8.64941 8.19926 9.16613C8.05876 9.68286 7.71945 10.1225 7.25591 10.3883L6.79268 10.655L7.25591 10.9217C7.49212 11.0497 7.70042 11.2239 7.86856 11.4338C8.03671 11.6438 8.16129 11.8854 8.235 12.1444C8.30871 12.4033 8.33005 12.6745 8.29777 12.9419C8.26548 13.2092 8.18023 13.4674 8.04701 13.7013C7.9138 13.9351 7.73531 14.1399 7.52206 14.3035C7.3088 14.4671 7.06508 14.5863 6.80522 14.6541C6.54536 14.7219 6.27462 14.7369 6.0089 14.6982C5.74319 14.6595 5.48787 14.5679 5.25796 14.4288L4.74639 14.1358V14.6954C4.74639 15.2312 4.5342 15.7451 4.15649 16.124C3.77878 16.5028 3.26649 16.7157 2.73233 16.7157C2.19817 16.7157 1.68589 16.5028 1.30818 16.124C0.930466 15.7451 0.718271 15.2312 0.718271 14.6954V10.655C0.717144 10.2921 0.81389 9.93564 0.998262 9.62338C1.18263 9.31112 1.44777 9.05469 1.76558 8.88126L5.25796 6.88124C5.72165 6.61564 6.27151 6.5456 6.78666 6.68653C7.30181 6.82745 7.74009 7.1678 8.00514 7.63276ZM25.6564 7.63276C25.9214 7.1678 26.3597 6.82745 26.8748 6.68653C27.39 6.5456 27.9399 6.61564 28.4035 6.88124L31.8939 8.88126C32.2112 9.05544 32.4761 9.31198 32.6607 9.62403C32.8453 9.93607 32.9429 10.2922 32.9432 10.655V14.6954C32.9432 15.2312 32.731 15.7451 32.3533 16.124C31.9756 16.5028 31.4633 16.7157 30.9292 16.7157C30.395 16.7157 29.8827 16.5028 29.505 16.124C29.1273 15.7451 28.9151 15.2312 28.9151 14.6954V14.1358L28.4035 14.4288C28.1736 14.5679 27.9183 14.6595 27.6526 14.6982C27.3869 14.7369 27.1161 14.7219 26.8563 14.6541C26.5964 14.5863 26.3527 14.4671 26.1394 14.3035C25.9262 14.1399 25.7477 13.9351 25.6145 13.7013C25.4813 13.4674 25.396 13.2092 25.3637 12.9419C25.3314 12.6745 25.3528 12.4033 25.4265 12.1444C25.5002 11.8854 25.6248 11.6438 25.7929 11.4338C25.9611 11.2239 26.1694 11.0497 26.4056 10.9217L26.8688 10.655L26.4056 10.3883C25.9421 10.1225 25.6027 9.68286 25.4622 9.16613C25.3217 8.64941 25.3916 8.09787 25.6564 7.63276ZM2.73233 20.7561C3.26649 20.7561 3.77878 20.9689 4.15649 21.3478C4.5342 21.7267 4.74639 22.2405 4.74639 22.7763V25.645L7.25591 27.0834C7.49212 27.2115 7.70042 27.3856 7.86856 27.5956C8.03671 27.8056 8.16129 28.0471 8.235 28.3061C8.30871 28.5651 8.33005 28.8362 8.29777 29.1036C8.26548 29.371 8.18023 29.6292 8.04701 29.863C7.9138 30.0968 7.73531 30.3016 7.52206 30.4652C7.3088 30.6289 7.06508 30.7481 6.80522 30.8159C6.54536 30.8837 6.27462 30.8986 6.0089 30.8599C5.74319 30.8212 5.48787 30.7296 5.25796 30.5905L1.73336 28.5703C1.4251 28.3937 1.16886 28.1385 0.990595 27.8305C0.812333 27.5226 0.718386 27.1728 0.718271 26.8168V22.7763C0.718271 22.2405 0.930466 21.7267 1.30818 21.3478C1.68589 20.9689 2.19817 20.7561 2.73233 20.7561ZM30.9292 20.7561C31.4633 20.7561 31.9756 20.9689 32.3533 21.3478C32.731 21.7267 32.9432 22.2405 32.9432 22.7763V26.8168C32.9431 27.1728 32.8492 27.5226 32.6709 27.8305C32.4926 28.1385 32.2364 28.3937 31.9281 28.5703L28.4035 30.5905C28.1736 30.7296 27.9183 30.8212 27.6526 30.8599C27.3869 30.8986 27.1161 30.8837 26.8563 30.8159C26.5964 30.7481 26.3527 30.6289 26.1394 30.4652C25.9262 30.3016 25.7477 30.0968 25.6145 29.863C25.4813 29.6292 25.396 29.371 25.3637 29.1036C25.3314 28.8362 25.3528 28.5651 25.4265 28.3061C25.5002 28.0471 25.6248 27.8056 25.7929 27.5956C25.9611 27.3856 26.1694 27.2115 26.4056 27.0834L28.9151 25.645V22.7763C28.9151 22.2405 29.1273 21.7267 29.505 21.3478C29.8827 20.9689 30.395 20.7561 30.9292 20.7561ZM11.5579 31.8754C11.823 31.4104 12.2613 31.0701 12.7764 30.9291C13.2916 30.7882 13.8414 30.8583 14.3051 31.1239L14.8167 31.4168V30.8572C14.8167 30.3214 15.0289 29.8075 15.4066 29.4287C15.7843 29.0498 16.2966 28.837 16.8307 28.837C17.3649 28.837 17.8772 29.0498 18.2549 29.4287C18.6326 29.8075 18.8448 30.3214 18.8448 30.8572V31.4168L19.3564 31.1239C19.5863 30.9847 19.8416 30.8931 20.1073 30.8544C20.373 30.8157 20.6438 30.8307 20.9036 30.8985C21.1635 30.9663 21.4072 31.0855 21.6205 31.2491C21.8337 31.4128 22.0122 31.6175 22.1454 31.8514C22.2786 32.0852 22.3639 32.3434 22.3962 32.6108C22.4285 32.8782 22.4071 33.1493 22.3334 33.4083C22.2597 33.6672 22.1351 33.9088 21.967 34.1188C21.7988 34.3288 21.5905 34.5029 21.3543 34.631L17.8599 36.635C17.5489 36.8217 17.1932 36.9204 16.8307 36.9204C16.4683 36.9204 16.1126 36.8217 15.8016 36.635L12.3072 34.631C11.8436 34.3651 11.5043 33.9255 11.3638 33.4088C11.2233 32.892 11.2931 32.3405 11.5579 31.8754Z" fill="white"></path>
</svg>