<svg width="157" height="24" viewBox="0 0 157 24" fill="none" xmlns="http://www.w3.org/2000/svg">
<path d="M138.453 0.740504C138.232 0.508404 137.956 0.453142 137.779 0.607875L136.134 2.1331C135.957 2.29889 135.99 2.5752 136.211 2.81835L144.429 11.7487L146.506 9.49399L138.453 0.751556V0.740504Z" fill="white"/>
<path d="M148.583 11.7487L146.506 14.0034L154.559 22.7458C154.78 22.9779 155.056 23.0332 155.233 22.8785L156.879 21.3532C157.055 21.1875 157.022 20.9111 156.801 20.668L148.583 11.7377V11.7487Z" fill="white"/>
<path d="M136.2 20.6679C135.979 20.9 135.946 21.1874 136.123 21.3532L137.768 22.8784C137.945 23.0442 138.221 22.9889 138.442 22.7458L146.495 14.0033L144.418 11.7487L136.2 20.679V20.6679Z" fill="white"/>
<path d="M156.812 2.81837C157.033 2.58627 157.066 2.29891 156.889 2.13313L155.244 0.607899C155.067 0.442113 154.791 0.497375 154.57 0.740527L146.517 9.48296L148.594 11.7376L156.812 2.80732V2.81837Z" fill="white"/>
<path d="M39.4903 0.751509C39.3577 0.618881 39.1257 0.519409 38.9269 0.519409H26.4889C26.29 0.519409 26.1575 0.652038 26.1575 0.850981V3.14988C26.1575 3.34882 26.29 3.48145 26.4889 3.48145H39.0926C39.7885 3.48145 40.2414 3.94565 40.2414 4.63089V22.6242C40.2414 22.8563 40.4071 23.0221 40.6391 23.0221H42.8152C43.0471 23.0221 43.2128 22.8563 43.2128 22.6242V4.77458C43.2128 4.57563 43.1134 4.34353 42.9809 4.22196L39.4903 0.751509Z" fill="white"/>
<path d="M25.8371 3.4704H23.5284C23.3296 3.4704 23.197 3.60303 23.197 3.80197V22.6794C23.197 22.8784 23.3296 23.011 23.5284 23.011H25.7708C26.0028 23.011 26.1685 22.8452 26.1685 22.6131V3.79092C26.1685 3.59198 26.0359 3.45935 25.8371 3.45935V3.4704Z" fill="white"/>
<path d="M66.7192 13.6607H64.4106C64.2118 13.6607 64.0792 13.7934 64.0792 13.9923V18.9106C64.0792 19.5959 63.6153 20.0601 62.9304 20.0601H51.9725C51.2766 20.0601 50.8237 19.5959 50.8237 18.9106V14.8102C50.8237 14.1249 51.2877 13.6607 51.9725 13.6607H63.4054C63.6042 13.6607 63.7368 13.5281 63.7368 13.3292V10.975C63.7368 10.7761 63.6042 10.6434 63.4054 10.6434H51.9725C51.2766 10.6434 50.8237 10.1792 50.8237 9.494V4.6199C50.8237 3.93465 51.2877 3.47045 51.9725 3.47045H62.7757C63.4717 3.47045 63.9246 3.93465 63.9246 4.6199V10.0356C63.9246 10.2345 64.0571 10.3671 64.2559 10.3671H66.5646C66.7634 10.3671 66.896 10.2345 66.896 10.0356V4.88516C66.896 4.6199 66.7634 4.33254 66.5977 4.16675L63.2397 0.828932C63.074 0.663146 62.7757 0.530518 62.5106 0.530518H48.1837C47.9848 0.530518 47.8523 0.663146 47.8523 0.862089V22.6795C47.8523 22.8784 47.9848 23.0111 48.1837 23.0111H62.6653C62.9304 23.0111 63.2286 22.8784 63.3943 22.7126L66.7524 19.3748C66.9181 19.209 67.0506 18.9106 67.0506 18.6564V14.0034C67.0506 13.8044 66.9181 13.6718 66.7192 13.6718V13.6607Z" fill="white"/>
<path d="M18.867 13.6607H16.5583C16.3595 13.6607 16.2269 13.7934 16.2269 13.9923V18.9106C16.2269 19.5959 15.763 20.0601 15.0781 20.0601H4.12024C3.42433 20.0601 2.97143 19.5959 2.97143 18.9106V14.8102C2.97143 14.1249 3.43538 13.6607 4.12024 13.6607H15.5531C15.7519 13.6607 15.8845 13.5281 15.8845 13.3292V10.975C15.8845 10.7761 15.7519 10.6434 15.5531 10.6434H4.12024C3.42433 10.6434 2.97143 10.1792 2.97143 9.494V4.6199C2.97143 3.93465 3.43538 3.47045 4.12024 3.47045H14.9235C15.6194 3.47045 16.0723 3.93465 16.0723 4.6199V10.0356C16.0723 10.2345 16.2048 10.3671 16.4036 10.3671H18.7123C18.9111 10.3671 19.0437 10.2345 19.0437 10.0356V4.88516C19.0437 4.6199 18.9111 4.33254 18.7454 4.16675L15.3874 0.828932C15.2217 0.663146 14.9235 0.530518 14.6583 0.530518H0.331387C0.132555 0.530518 0 0.663146 0 0.862089V22.6795C0 22.8784 0.132555 23.0111 0.331387 23.0111H14.813C15.0781 23.0111 15.3763 22.8784 15.542 22.7126L18.9001 19.3748C19.0658 19.209 19.1983 18.9106 19.1983 18.6564V14.0034C19.1983 13.8044 19.0658 13.6718 18.867 13.6718V13.6607Z" fill="white"/>
<path d="M75.3684 2.93994H77.5445C77.7654 2.93994 77.9421 3.11678 77.9421 3.33783V22.6132C77.9421 22.8342 77.7654 23.0111 77.5445 23.0111H75.3684C75.1474 23.0111 74.9707 22.8342 74.9707 22.6132V3.33783C74.9707 3.11678 75.1474 2.93994 75.3684 2.93994Z" fill="white"/>
<path d="M106.806 2.93989H108.982C109.203 2.93989 109.38 3.11672 109.38 3.33777V22.6021C109.38 22.8231 109.203 23 108.982 23H106.806C106.585 23 106.408 22.8231 106.408 22.6021V3.32672C106.408 3.10567 106.585 2.92883 106.806 2.92883V2.93989Z" fill="white"/>
<path d="M78.3288 0.0552979H90.2919C90.5128 0.0552979 90.6895 0.232136 90.6895 0.453183V2.6084C90.6895 2.82944 90.5128 3.00628 90.2919 3.00628H78.3288C78.1079 3.00628 77.9312 2.82944 77.9312 2.6084V0.453183C77.9312 0.232136 78.1079 0.0552979 78.3288 0.0552979Z" fill="white"/>
<path d="M91.0871 2.93994H93.2632C93.4841 2.93994 93.6609 3.11678 93.6609 3.33783V22.6132C93.6609 22.8342 93.4841 23.0111 93.2632 23.0111H91.0871C90.8662 23.0111 90.6895 22.8342 90.6895 22.6132V3.33783C90.6895 3.11678 90.8662 2.93994 91.0871 2.93994Z" fill="white"/>
<path d="M94.0476 0.0552979H106.011C106.232 0.0552979 106.408 0.232136 106.408 0.453183V2.6084C106.408 2.82944 106.232 3.00628 106.011 3.00628H94.0366C93.8157 3.00628 93.6389 2.82944 93.6389 2.6084V0.453183C93.6389 0.232136 93.8157 0.0552979 94.0366 0.0552979H94.0476Z" fill="white"/>
<path d="M128.225 11.5276H117.311C117.079 11.5276 116.913 11.6934 116.913 11.9255V14.1028C116.913 14.3349 117.079 14.5007 117.311 14.5007H128.225C128.457 14.5007 128.622 14.3349 128.622 14.1028V11.9255C128.622 11.6934 128.457 11.5276 128.225 11.5276Z" fill="white"/>
<path d="M128.545 0.2321C128.412 0.0994714 128.18 0 127.982 0H116.449C116.25 0 116.118 0.132629 116.118 0.331571V2.63047C116.118 2.82941 116.25 2.96204 116.449 2.96204H128.136C128.832 2.96204 129.285 3.42624 129.285 4.11149V22.6242C129.285 22.8563 129.451 23.0221 129.683 23.0221H131.859C132.091 23.0221 132.256 22.8563 132.256 22.6242V4.25517C132.256 4.05622 132.157 3.82412 132.024 3.70255L128.534 0.2321H128.545Z" fill="white"/>
<path d="M115.798 2.95093H113.489C113.29 2.95093 113.157 3.08356 113.157 3.2825V22.6794C113.157 22.8784 113.29 23.011 113.489 23.011H115.731C115.963 23.011 116.129 22.8452 116.129 22.6131V3.2825C116.129 3.08356 115.996 2.95093 115.798 2.95093Z" fill="white"/>
</svg>
