<svg width="437" height="437" viewBox="0 0 437 437" fill="none" xmlns="http://www.w3.org/2000/svg">
<g clip-path="url(#clip0_68_391)">
<path d="M99.5152 221.005C50.9226 221.005 1.44755 216.296 0.704384 216.227C0.278609 216.188 -0.0310457 215.809 0.00766107 215.384C0.0463679 214.958 0.417953 214.649 0.85147 214.688C1.96623 214.796 113.155 225.382 165.681 214.703C166.099 214.618 166.509 214.889 166.594 215.306C166.679 215.724 166.408 216.134 165.99 216.219C148.301 219.815 124.024 221.013 99.5152 221.013V221.005Z" fill="white"/>
<path d="M249.659 435.453C249.543 435.453 249.427 435.43 249.318 435.376C209.969 415.835 187.929 391.33 183.819 362.525C180.172 336.991 191.614 312.81 201.856 297.02C212.926 279.953 225.018 268.74 225.142 268.624C225.459 268.331 225.947 268.354 226.234 268.671C226.52 268.988 226.504 269.475 226.187 269.761C225.707 270.202 178.493 314.303 185.351 362.308C189.385 390.572 211.138 414.691 250.007 433.984C250.387 434.177 250.549 434.641 250.356 435.02C250.224 435.291 249.945 435.446 249.659 435.446V435.453Z" fill="white"/>
<path d="M218.693 437C218.531 437 218.368 436.946 218.229 436.845C181.775 409.471 163.799 380.55 164.814 350.871C165.65 326.327 179.631 305.912 191.204 293.107C203.722 279.265 216.224 271.084 216.348 270.998C216.704 270.767 217.184 270.867 217.416 271.223C217.648 271.578 217.548 272.058 217.192 272.29C216.696 272.607 167.933 304.807 166.362 350.925C165.371 380.063 183.13 408.551 219.158 435.6C219.499 435.856 219.568 436.343 219.313 436.683C219.158 436.884 218.926 436.992 218.693 436.992V437Z" fill="white"/>
<path d="M192.125 435.453C191.932 435.453 191.746 435.384 191.591 435.245C157.343 402.79 142.488 371.441 147.442 342.071C151.483 318.092 168.282 300.028 181.659 289.093C196.12 277.278 209.83 271.014 209.961 270.952C210.348 270.774 210.813 270.952 210.983 271.339C211.161 271.725 210.983 272.189 210.596 272.359C210.054 272.607 156.546 297.313 148.959 342.334C144.106 371.162 158.799 402.047 192.652 434.123C192.961 434.417 192.977 434.904 192.683 435.214C192.528 435.376 192.327 435.453 192.118 435.453H192.125Z" fill="white"/>
<path d="M160.246 428.88C160.006 428.88 159.766 428.765 159.619 428.556C133.028 391.461 124.473 358.272 134.197 329.915C142.147 306.724 161.113 291.243 175.628 282.343C191.32 272.715 205.34 268.493 205.479 268.454C205.889 268.331 206.323 268.563 206.439 268.972C206.563 269.382 206.331 269.815 205.92 269.931C205.371 270.094 150.601 286.843 135.66 330.426C126.107 358.279 134.591 390.989 160.881 427.651C161.129 427.999 161.051 428.478 160.703 428.734C160.564 428.834 160.409 428.88 160.254 428.88H160.246Z" fill="white"/>
<path d="M135.087 419.988C134.808 419.988 134.545 419.841 134.405 419.578C113.635 380.937 109.471 347.585 122.043 320.45C141.837 277.734 197.072 265.462 197.629 265.346C198.047 265.253 198.458 265.524 198.55 265.941C198.643 266.359 198.372 266.769 197.954 266.861C197.405 266.977 142.905 279.095 123.444 321.115C111.096 347.786 115.238 380.666 135.768 418.851C135.969 419.23 135.83 419.694 135.451 419.895C135.334 419.957 135.211 419.988 135.087 419.988Z" fill="white"/>
<path d="M109.54 407.615C109.2 407.615 108.898 407.391 108.797 407.058C96.6975 364.883 99.3992 330.518 116.825 304.923C142.41 267.325 191.552 262.121 192.048 262.075C192.474 262.044 192.853 262.345 192.892 262.771C192.93 263.196 192.621 263.575 192.195 263.614C191.707 263.66 143.262 268.81 118.095 305.804C100.947 331.006 98.3231 364.93 110.284 406.633C110.4 407.043 110.16 407.468 109.749 407.592C109.68 407.615 109.61 407.623 109.533 407.623L109.54 407.615Z" fill="white"/>
<path d="M87.0903 391.376C86.7265 391.376 86.4013 391.121 86.3317 390.75C79.0858 353.176 84.4892 322.561 102.38 299.78C131.812 262.299 185.599 259.175 186.141 259.152C186.567 259.121 186.931 259.461 186.954 259.886C186.977 260.312 186.644 260.675 186.218 260.698C185.684 260.721 132.586 263.822 103.595 300.747C85.9988 323.164 80.696 353.354 87.8567 390.464C87.9341 390.881 87.6632 391.291 87.2451 391.368C87.1987 391.376 87.1445 391.384 87.0981 391.384L87.0903 391.376Z" fill="white"/>
<path d="M66.1886 372.044C66.1886 372.044 66.1499 372.044 66.1266 372.044C65.7009 372.013 65.3835 371.642 65.4144 371.216C67.5433 343.038 74.9286 319.36 87.3612 300.847C97.3243 286.016 110.531 274.447 126.61 266.475C153.96 252.911 180.544 254.489 180.807 254.504C181.233 254.535 181.558 254.899 181.527 255.324C181.496 255.749 181.117 256.066 180.707 256.043C180.443 256.02 154.223 254.481 127.245 267.882C102.379 280.232 71.7314 308.209 66.9627 371.325C66.9317 371.735 66.5911 372.036 66.1886 372.036V372.044Z" fill="white"/>
<path d="M47.9964 350.778C47.9268 350.778 47.8493 350.771 47.7797 350.748C47.3694 350.632 47.1371 350.199 47.2533 349.789C54.5301 324.804 65.8093 303.941 80.7734 287.771C92.7647 274.826 107.125 264.859 123.467 258.139C151.289 246.694 175.551 248.689 175.791 248.705C176.217 248.743 176.534 249.114 176.495 249.54C176.457 249.965 176.093 250.282 175.659 250.243C175.419 250.22 151.475 248.272 123.993 259.592C98.6559 270.032 65.0352 294.228 48.7396 350.222C48.639 350.562 48.3293 350.778 47.9964 350.778Z" fill="white"/>
<path d="M31.3525 327.967C31.2286 327.967 31.1048 327.936 30.9887 327.874C30.6093 327.673 30.47 327.201 30.679 326.822C57.1932 277.858 94.073 257.652 120.347 249.315C148.82 240.284 171.347 242.874 171.572 242.905C171.998 242.959 172.299 243.338 172.245 243.763C172.191 244.189 171.812 244.482 171.386 244.436C171.162 244.413 148.913 241.853 120.742 250.808C94.7698 259.059 58.2924 279.079 32.0415 327.549C31.9021 327.804 31.6389 327.951 31.3602 327.951L31.3525 327.967Z" fill="white"/>
<path d="M19.9572 302.371C19.7791 302.371 19.5933 302.309 19.454 302.185C19.1288 301.907 19.0979 301.42 19.3766 301.095C50.2104 265.547 89.4049 249.834 116.848 242.913C146.575 235.412 169.342 236.332 169.567 236.34C169.993 236.355 170.325 236.719 170.302 237.144C170.287 237.569 169.931 237.917 169.497 237.879C169.273 237.871 146.691 236.966 117.173 244.421C89.9546 251.295 51.1007 266.877 20.5378 302.1C20.3829 302.278 20.1662 302.363 19.9494 302.363L19.9572 302.371Z" fill="white"/>
<path d="M9.67678 276.156C9.39809 276.156 9.13488 276.009 8.99553 275.754C8.79426 275.375 8.9336 274.911 9.30519 274.702C62.589 245.89 102.79 235.412 127.129 231.7C153.573 227.663 167.19 230.432 167.755 230.548C168.173 230.633 168.444 231.043 168.352 231.46C168.266 231.878 167.848 232.149 167.438 232.056C167.299 232.025 153.449 229.225 127.237 233.239C103.038 236.943 63.0612 247.382 10.0406 276.056C9.9245 276.118 9.80064 276.149 9.66903 276.149L9.67678 276.156Z" fill="white"/>
<path d="M4.25778 248.318C3.91716 248.318 3.60751 248.094 3.51461 247.753C3.39849 247.344 3.63847 246.918 4.04877 246.802C72.2424 227.663 164.589 223.519 165.518 223.48C165.936 223.457 166.308 223.789 166.323 224.222C166.339 224.648 166.014 225.011 165.58 225.027C164.659 225.065 72.4824 229.202 4.4668 248.287C4.39713 248.31 4.32746 248.318 4.25778 248.318Z" fill="white"/>
<path d="M276.134 428.88C276.042 428.88 275.949 428.865 275.856 428.826C233.673 412.448 208.831 389.621 202.019 360.994C196.275 336.828 204.751 313.011 212.88 297.282C221.666 280.278 231.947 268.795 232.055 268.686C232.342 268.369 232.829 268.346 233.147 268.632C233.464 268.918 233.487 269.405 233.201 269.723C232.798 270.171 192.721 315.254 203.528 360.646C210.217 388.755 234.741 411.211 276.421 427.388C276.816 427.543 277.017 427.991 276.862 428.386C276.746 428.695 276.452 428.88 276.142 428.88H276.134Z" fill="white"/>
<path d="M302.943 419.988C302.881 419.988 302.811 419.98 302.742 419.965C260.621 408.845 233.89 389.296 223.292 361.86C214.235 338.414 218.934 313.506 224.476 296.733C230.468 278.6 238.713 265.81 238.79 265.678C239.022 265.323 239.502 265.214 239.858 265.454C240.215 265.686 240.323 266.165 240.083 266.521C239.758 267.024 207.693 317.233 224.732 361.311C235.144 388.252 261.519 407.476 303.129 418.464C303.539 418.573 303.787 418.998 303.678 419.408C303.585 419.756 303.276 419.98 302.927 419.98L302.943 419.988Z" fill="white"/>
<path d="M328.814 407.615C328.776 407.615 328.729 407.615 328.691 407.607C285.44 400.733 256.479 383.852 242.607 357.436C231.041 335.413 232.404 310.769 235.577 293.965C239.015 275.801 245.27 262.631 245.332 262.5C245.517 262.113 245.982 261.951 246.361 262.137C246.748 262.322 246.911 262.786 246.725 263.165C246.477 263.683 222.224 315.3 243.977 356.717C257.609 382.669 286.191 399.279 328.931 406.069C329.356 406.138 329.643 406.532 329.573 406.95C329.511 407.329 329.186 407.6 328.807 407.6L328.814 407.615Z" fill="white"/>
<path d="M350.916 391.376C350.916 391.376 350.877 391.376 350.862 391.376C310.63 388.546 281.522 374.982 264.36 351.08C236.785 312.671 250.077 260.25 250.216 259.724C250.325 259.314 250.751 259.067 251.161 259.175C251.571 259.283 251.819 259.708 251.71 260.118C251.579 260.636 238.465 312.385 265.622 350.191C282.506 373.699 311.218 387.038 350.97 389.837C351.396 389.868 351.721 390.239 351.69 390.665C351.659 391.074 351.319 391.384 350.916 391.384V391.376Z" fill="white"/>
<path d="M370.571 372.044C330.719 372.044 300.527 360.831 280.826 338.715C250.387 304.544 256.015 255.595 256.077 255.107C256.131 254.682 256.518 254.388 256.936 254.435C257.362 254.489 257.664 254.875 257.609 255.293C257.547 255.772 252.012 304.056 281.987 337.694C301.588 359.694 331.826 370.706 371.841 370.49C372.267 370.49 372.615 370.83 372.615 371.255C372.615 371.68 372.274 372.028 371.849 372.036C371.423 372.044 370.997 372.036 370.571 372.036V372.044Z" fill="white"/>
<path d="M374.76 351.374C344.158 351.374 318.89 342.961 299.506 326.273C264.817 296.416 261.279 249.841 261.248 249.37C261.217 248.944 261.542 248.573 261.968 248.542C262.394 248.527 262.765 248.836 262.796 249.261C262.827 249.725 266.334 295.682 300.535 325.105C322.583 344.082 352.418 352.194 389.197 349.224C389.623 349.193 389.995 349.51 390.033 349.936C390.064 350.361 389.747 350.732 389.321 350.771C384.343 351.173 379.489 351.374 374.767 351.374H374.76Z" fill="white"/>
<path d="M392.077 328.469C370.835 328.469 351.52 325.036 334.481 318.231C317.806 311.565 303.276 301.675 291.292 288.823C270.886 266.946 264.855 243.725 264.793 243.493C264.693 243.075 264.94 242.657 265.358 242.557C265.777 242.456 266.195 242.704 266.295 243.121C266.349 243.346 272.31 266.235 292.469 287.825C311.064 307.737 345.923 330.603 406.36 326.428C406.793 326.404 407.157 326.722 407.188 327.147C407.219 327.572 406.894 327.943 406.468 327.974C401.583 328.315 396.776 328.477 392.077 328.477V328.469Z" fill="white"/>
<path d="M399.253 304.01C350.444 304.01 318.619 288.111 299.908 273.852C277.04 256.43 268.223 237.577 268.138 237.384C267.959 236.997 268.138 236.541 268.517 236.355C268.904 236.177 269.368 236.355 269.546 236.734C269.632 236.92 278.325 255.479 300.922 272.669C321.77 288.537 359.075 306.446 418.366 301.675C418.784 301.644 419.164 301.961 419.203 302.386C419.233 302.811 418.916 303.183 418.49 303.221C411.81 303.763 405.4 304.01 399.261 304.01H399.253Z" fill="white"/>
<path d="M408.04 276.79C361.297 276.79 328.048 265.941 307.588 256.151C282.343 244.08 270.499 230.95 270.383 230.818C270.096 230.501 270.127 230.014 270.445 229.728C270.762 229.442 271.25 229.473 271.536 229.79C271.652 229.921 283.349 242.866 308.339 254.798C331.416 265.817 370.866 278.19 427.772 274.61C428.206 274.587 428.57 274.904 428.593 275.337C428.616 275.762 428.299 276.133 427.865 276.156C421.006 276.589 414.395 276.79 408.032 276.79H408.04Z" fill="white"/>
<path d="M392.836 248.225C359.548 248.225 333.049 243.895 314.849 239.557C287.421 233.015 272.38 225.019 272.233 224.941C271.854 224.74 271.714 224.269 271.915 223.898C272.117 223.526 272.589 223.379 272.961 223.581C273.108 223.658 288.01 231.576 315.267 238.072C340.419 244.065 381.541 250.042 434.585 244.467C435.011 244.421 435.39 244.73 435.436 245.155C435.483 245.581 435.173 245.959 434.747 246.006C419.807 247.576 405.795 248.233 392.828 248.233L392.836 248.225Z" fill="white"/>
<path d="M224.887 168.577C224.701 168.577 224.515 168.507 224.36 168.376C224.236 168.267 212.144 157.055 201.074 139.98C190.832 124.19 179.398 100.017 183.037 74.4753C187.147 45.6703 209.187 21.1649 248.536 1.6239C248.916 1.43057 249.38 1.59296 249.574 1.97187C249.767 2.35852 249.605 2.81476 249.225 3.00808C210.356 22.3093 188.603 46.4282 184.57 74.6918C177.718 122.705 224.933 166.79 225.405 167.231C225.723 167.517 225.738 168.012 225.452 168.321C225.297 168.484 225.088 168.569 224.879 168.569L224.887 168.577Z" fill="white"/>
<path d="M216 166.125C215.852 166.125 215.705 166.087 215.582 166.002C215.458 165.916 202.955 157.743 190.438 143.893C178.856 131.088 164.883 110.673 164.047 86.1287C163.033 56.45 181.001 27.529 217.463 0.154655C217.803 -0.100529 218.291 -0.0309336 218.546 0.309313C218.802 0.649559 218.732 1.13673 218.392 1.39191C182.371 28.4415 164.605 56.9294 165.596 86.0668C167.167 132.178 215.938 164.385 216.425 164.702C216.781 164.934 216.882 165.414 216.65 165.77C216.503 165.994 216.255 166.125 216 166.125Z" fill="white"/>
<path d="M209.505 166.125C209.396 166.125 209.288 166.102 209.187 166.056C209.048 165.994 195.346 159.73 180.885 147.914C167.508 136.98 150.709 118.916 146.668 94.9364C141.713 65.567 156.569 34.2179 190.817 1.76309C191.127 1.46924 191.614 1.4847 191.908 1.79402C192.203 2.10333 192.187 2.5905 191.878 2.88435C158.025 34.9603 143.324 65.8454 148.185 94.6735C155.772 139.694 209.288 164.409 209.822 164.648C210.209 164.826 210.387 165.282 210.209 165.669C210.077 165.955 209.799 166.125 209.505 166.125Z" fill="white"/>
<path d="M204.922 168.577C204.852 168.577 204.775 168.569 204.697 168.546C204.558 168.507 190.538 164.277 174.846 154.657C160.339 145.757 141.373 130.276 133.415 107.085C123.692 78.7284 132.246 45.5389 158.837 8.4443C159.085 8.09632 159.573 8.01899 159.921 8.26644C160.269 8.51389 160.347 9.00106 160.099 9.34904C133.817 46.0106 125.333 78.7206 134.878 106.574C149.819 150.157 204.581 166.899 205.138 167.069C205.549 167.192 205.781 167.618 205.657 168.028C205.556 168.36 205.247 168.577 204.914 168.577H204.922Z" fill="white"/>
<path d="M197.018 171.67C196.964 171.67 196.909 171.67 196.855 171.654C196.298 171.538 141.063 159.266 121.268 116.55C108.696 89.4152 112.854 56.0633 133.631 17.4222C133.833 17.0432 134.305 16.9041 134.676 17.1051C135.056 17.3062 135.195 17.7779 134.994 18.149C114.464 56.334 110.314 89.2219 122.677 115.893C142.147 157.921 196.638 170.023 197.18 170.139C197.598 170.231 197.861 170.641 197.776 171.059C197.699 171.422 197.374 171.67 197.018 171.67Z" fill="white"/>
<path d="M191.351 174.933C191.351 174.933 191.305 174.933 191.274 174.933C190.778 174.887 141.636 169.682 116.051 132.085C98.625 106.489 95.9233 72.1245 108.023 29.9494C108.139 29.5396 108.573 29.2998 108.983 29.4158C109.393 29.5318 109.633 29.9649 109.517 30.3747C97.549 72.0858 100.181 106.018 117.336 131.219C142.519 168.221 190.941 173.348 191.428 173.394C191.854 173.433 192.164 173.812 192.125 174.237C192.087 174.639 191.746 174.933 191.359 174.933H191.351Z" fill="white"/>
<path d="M185.406 177.856C185.406 177.856 185.382 177.856 185.367 177.856C184.825 177.825 131.046 174.709 101.605 137.228C83.7151 114.439 78.3116 83.8321 85.5575 46.258C85.6349 45.8405 86.0452 45.5698 86.4632 45.6471C86.8813 45.7245 87.16 46.1343 87.0748 46.5519C79.9218 83.6619 85.2169 113.851 102.813 136.269C131.804 173.201 184.91 176.294 185.437 176.317C185.862 176.34 186.195 176.704 186.172 177.129C186.149 177.539 185.808 177.864 185.398 177.864L185.406 177.856Z" fill="white"/>
<path d="M177.146 182.558C169.52 182.558 147.93 181.483 125.844 170.525C109.765 162.553 96.558 150.984 86.5948 136.153C74.1622 117.64 66.777 93.9621 64.6481 65.7835C64.6171 65.3582 64.9345 64.987 65.3603 64.9561C65.7783 64.9252 66.1576 65.2422 66.1886 65.6675C70.9573 128.783 101.605 156.753 126.471 169.11C153.457 182.511 179.677 180.972 179.932 180.949C180.351 180.934 180.73 181.243 180.753 181.668C180.784 182.094 180.459 182.465 180.033 182.488C179.979 182.488 178.957 182.55 177.138 182.55L177.146 182.558Z" fill="white"/>
<path d="M170.295 188.435C161.88 188.435 143.262 187.313 122.701 178.861C106.359 172.141 91.9984 162.166 80.007 149.229C65.0352 133.067 53.756 112.204 46.4869 87.2113C46.3708 86.8015 46.603 86.3762 47.0133 86.2524C47.4236 86.1287 47.8571 86.3684 47.9732 86.7783C64.2766 142.772 97.8973 166.968 123.227 177.408C150.709 188.728 174.653 186.772 174.893 186.757C175.326 186.718 175.698 187.035 175.729 187.46C175.768 187.886 175.45 188.264 175.025 188.295C174.963 188.295 173.259 188.442 170.295 188.442V188.435Z" fill="white"/>
<path d="M162.336 194.459C153.225 194.459 137.587 193.399 119.558 187.685C93.2911 179.348 56.4112 159.142 29.8893 110.178C29.6881 109.799 29.8274 109.335 30.199 109.126C30.5706 108.925 31.0428 109.064 31.2441 109.436C57.5183 157.944 94.0188 177.957 120.014 186.2C148.17 195.131 170.364 192.579 170.589 192.548C171.014 192.487 171.401 192.796 171.448 193.221C171.502 193.647 171.2 194.033 170.774 194.08C170.689 194.087 167.608 194.443 162.321 194.443L162.336 194.459Z" fill="white"/>
<path d="M166.091 200.707C159.209 200.707 139.871 200.096 116.074 194.095C88.6308 187.174 49.4362 171.461 18.6024 135.913C18.3237 135.588 18.3547 135.101 18.6798 134.823C19.0049 134.544 19.4926 134.575 19.7713 134.9C50.3342 170.123 89.1881 185.713 116.407 192.579C145.925 200.034 168.506 199.129 168.731 199.121C169.164 199.098 169.52 199.431 169.536 199.856C169.551 200.281 169.226 200.645 168.8 200.66C168.754 200.66 167.809 200.699 166.091 200.699V200.707Z" fill="white"/>
<path d="M152.791 207.481C146.234 207.481 137.417 206.986 126.354 205.292C102.016 201.58 61.8147 191.102 8.53089 162.29C8.15156 162.089 8.01222 161.617 8.22123 161.238C8.42251 160.867 8.89473 160.728 9.27406 160.929C62.3643 189.633 102.379 200.065 126.594 203.761C152.76 207.751 166.532 204.96 166.671 204.929C167.089 204.844 167.5 205.107 167.593 205.524C167.678 205.942 167.415 206.352 166.997 206.444C166.664 206.514 161.918 207.481 152.799 207.481H152.791Z" fill="white"/>
<path d="M164.775 213.52C164.775 213.52 164.752 213.52 164.744 213.52C163.823 213.481 71.4683 209.337 3.2746 190.198C2.8643 190.082 2.62432 189.656 2.74044 189.247C2.85656 188.837 3.28234 188.597 3.69263 188.713C71.716 207.798 163.885 211.935 164.806 211.973C165.232 211.989 165.565 212.352 165.549 212.778C165.534 213.195 165.185 213.52 164.775 213.52Z" fill="white"/>
<path d="M231.846 168.577C231.637 168.577 231.42 168.492 231.273 168.321C231.173 168.205 220.884 156.73 212.098 139.725C203.969 123.997 195.493 100.172 201.237 76.0141C208.049 47.3793 232.891 24.5596 275.074 8.18138C275.469 8.02672 275.918 8.22005 276.072 8.62215C276.227 9.01653 276.026 9.46504 275.631 9.61969C233.952 25.8046 209.427 48.2608 202.738 76.3621C191.939 121.754 232.009 166.837 232.411 167.285C232.698 167.602 232.674 168.089 232.357 168.376C232.21 168.507 232.024 168.577 231.838 168.577H231.846Z" fill="white"/>
<path d="M238.666 171.67C238.411 171.67 238.163 171.546 238.016 171.314C237.931 171.19 229.694 158.392 223.702 140.259C218.159 123.486 213.46 98.5786 222.518 75.1326C233.116 47.7041 259.847 28.1554 301.967 17.0278C302.378 16.9195 302.803 17.167 302.912 17.5768C303.02 17.9867 302.772 18.412 302.362 18.5202C260.752 29.5086 234.378 48.7403 223.965 75.6739C206.927 119.751 238.991 169.961 239.317 170.463C239.549 170.819 239.448 171.299 239.092 171.531C238.96 171.616 238.813 171.654 238.674 171.654L238.666 171.67Z" fill="white"/>
<path d="M245.254 174.933C244.968 174.933 244.689 174.771 244.557 174.492C244.495 174.361 238.24 161.192 234.803 143.027C231.622 126.231 230.267 101.587 241.832 79.5558C255.705 53.1403 284.665 36.2594 327.916 29.3849C328.334 29.3153 328.737 29.6014 328.807 30.0267C328.876 30.452 328.582 30.8464 328.164 30.9083C285.432 37.6977 256.843 54.3079 243.21 80.2595C221.449 121.677 245.711 173.294 245.959 173.812C246.144 174.198 245.982 174.655 245.595 174.84C245.486 174.894 245.37 174.918 245.262 174.918L245.254 174.933Z" fill="white"/>
<path d="M250.193 177.856C249.852 177.856 249.535 177.624 249.442 177.276C249.303 176.75 236.003 124.321 263.586 85.9199C280.748 62.0176 309.856 48.4619 350.088 45.6239C350.521 45.5853 350.885 45.9178 350.916 46.3431C350.947 46.7684 350.622 47.1396 350.196 47.1705C310.444 49.9698 281.731 63.309 264.847 86.8169C237.691 124.623 250.805 176.371 250.936 176.889C251.045 177.299 250.797 177.725 250.387 177.833C250.325 177.848 250.255 177.856 250.193 177.856Z" fill="white"/>
<path d="M256.069 182.565C255.682 182.565 255.349 182.279 255.302 181.885C255.24 181.398 249.612 132.449 280.052 98.2771C299.753 76.161 329.945 64.9484 369.797 64.9484C370.223 64.9484 370.649 64.9484 371.074 64.9484C371.5 64.9484 371.849 65.2964 371.841 65.7294C371.841 66.1547 371.493 66.495 371.067 66.495C331.036 66.2939 300.822 77.29 281.213 99.2901C251.238 132.936 256.773 181.212 256.835 181.692C256.889 182.117 256.587 182.504 256.162 182.55C256.131 182.55 256.1 182.55 256.069 182.55V182.565Z" fill="white"/>
<path d="M261.248 188.45C261.248 188.45 261.209 188.45 261.194 188.45C260.768 188.419 260.443 188.056 260.474 187.623C260.505 187.159 264.042 140.576 298.732 110.719C321.112 91.4567 351.326 83.2212 388.539 86.2215C388.965 86.2524 389.282 86.6314 389.251 87.0567C389.22 87.482 388.841 87.7913 388.415 87.7681C351.636 84.7987 321.809 92.9104 299.753 111.887C265.56 141.31 262.045 187.275 262.014 187.731C261.983 188.141 261.643 188.45 261.24 188.45H261.248Z" fill="white"/>
<path d="M264.778 194.474C264.716 194.474 264.654 194.474 264.584 194.451C264.166 194.35 263.919 193.925 264.019 193.515C264.081 193.283 270.104 170.069 290.518 148.185C302.502 135.333 317.032 125.443 333.707 118.777C354.524 110.456 378.746 107.185 405.702 109.041C406.127 109.072 406.453 109.443 406.422 109.869C406.391 110.294 406.019 110.611 405.593 110.588C345.156 106.42 310.297 129.278 291.702 149.19C271.536 170.78 265.583 193.67 265.529 193.894C265.444 194.242 265.126 194.482 264.778 194.482V194.474Z" fill="white"/>
<path d="M268.068 200.714C267.96 200.714 267.851 200.691 267.743 200.645C267.356 200.467 267.186 200.011 267.364 199.616C267.449 199.431 276.266 180.57 299.134 163.148C320.206 147.095 357.883 128.961 417.709 133.779C418.134 133.81 418.452 134.189 418.421 134.614C418.39 135.039 418.011 135.356 417.585 135.325C358.239 130.546 320.926 148.494 300.071 164.385C277.513 181.576 268.858 200.08 268.773 200.266C268.641 200.552 268.362 200.714 268.068 200.714Z" fill="white"/>
<path d="M270.181 207.473C269.996 207.473 269.817 207.411 269.67 207.28C269.353 206.993 269.322 206.506 269.608 206.189C269.725 206.058 281.577 192.92 306.813 180.856C330.061 169.737 369.813 157.248 427.099 160.851C427.525 160.882 427.85 161.246 427.826 161.671C427.803 162.096 427.439 162.421 427.006 162.398C370.099 158.818 330.649 171.198 307.572 182.21C282.575 194.141 270.878 207.086 270.77 207.218C270.615 207.388 270.406 207.481 270.189 207.481L270.181 207.473Z" fill="white"/>
<path d="M271.83 213.52C271.552 213.52 271.288 213.373 271.149 213.11C270.948 212.731 271.087 212.267 271.467 212.066C271.614 211.989 286.647 203.993 314.083 197.451C339.366 191.419 380.697 185.403 433.989 191.01C434.414 191.056 434.724 191.435 434.678 191.86C434.631 192.286 434.252 192.595 433.826 192.548C380.782 186.973 339.668 192.951 314.508 198.944C287.251 205.439 272.349 213.358 272.202 213.435C272.086 213.497 271.962 213.528 271.838 213.528L271.83 213.52Z" fill="white"/>
<path d="M370.331 221.539C320.136 221.539 273.2 216.296 272.519 216.219C272.093 216.172 271.792 215.786 271.838 215.36C271.884 214.935 272.271 214.626 272.697 214.68C273.68 214.788 371.934 225.761 436.11 215.84C436.528 215.778 436.93 216.064 436.992 216.482C437.054 216.907 436.768 217.301 436.342 217.363C416.315 220.456 392.99 221.531 370.331 221.531V221.539Z" fill="white"/>
</g>
<defs>
<clipPath id="clip0_68_391">
<rect width="437" height="437" fill="white"/>
</clipPath>
</defs>
</svg>
