<svg width="37" height="40" viewBox="0 0 37 40" fill="none" xmlns="http://www.w3.org/2000/svg"><g clip-path="url(#clip0_15_613)"><path d="M18.4379 1.01489C8.25488 1.01489 0 9.4327 0 19.8167C0 30.2006 8.25488 38.6184 18.4379 38.6184C28.6208 38.6184 36.8757 30.2006 36.8757 19.8167C36.8757 9.4327 28.6208 1.01489 18.4379 1.01489ZM26.9841 13.8016C26.7066 16.7746 25.506 23.9893 24.895 27.3192C24.6365 28.7281 24.1276 29.2006 23.635 29.2467C22.5644 29.3473 21.7512 28.5252 20.7141 27.832C19.0914 26.7472 18.1746 26.072 16.5994 25.0134C14.779 23.7902 15.9591 23.1181 16.9965 22.0188C17.268 21.7313 21.9857 17.3555 22.077 16.9586C22.0883 16.9089 22.0993 16.7235 21.9912 16.6262C21.8831 16.5288 21.7243 16.5618 21.6094 16.5883C21.4467 16.626 18.8543 18.3733 13.8322 21.8302C13.0964 22.3454 12.4299 22.5965 11.8327 22.5833C11.1744 22.5688 9.90804 22.2038 8.9666 21.8917C7.81193 21.509 6.8942 21.3066 6.97412 20.6566C7.01575 20.318 7.47298 19.9717 8.34581 19.6179C13.7208 17.2299 17.305 15.6555 19.0984 14.8948C24.2187 12.7229 25.2827 12.3457 25.9762 12.3331C26.1287 12.3305 26.4698 12.369 26.6907 12.5518C26.8376 12.682 26.9313 12.8637 26.9531 13.061C26.9905 13.3059 27.0009 13.5543 26.9841 13.8016Z" fill="white" class="group-hover:fill-primary duration-300"></path></g><defs><clipPath id="clip0_15_613"><rect width="36.8757" height="38.8165" fill="white" transform="translate(0 0.408325)"></rect></clipPath></defs></svg>